<svg width="181" height="200" viewBox="0 0 181 200" fill="none" xmlns="http://www.w3.org/2000/svg">
<g clip-path="url(#clip0_33_779)">
<path d="M150.005 0C67.1508 0 0 67.1305 0 150.005C0 232.839 67.1508 300 150.005 300C232.829 300 299.99 232.839 299.99 150.005C299.99 67.1305 232.839 0 150.005 0ZM150.005 275.531C80.6298 275.531 24.449 219.34 24.449 149.995C24.449 80.6399 80.6298 24.4286 150.005 24.4286C219.319 24.4286 275.541 80.6501 275.541 149.995C275.551 219.34 219.319 275.531 150.005 275.531Z" fill="#DCDCDC"/>
<path d="M170.95 113.184H128.786V113.255H113.093V137.765H128.786V225.301H112.128V248.724H128.786V248.887H170.95V248.724H184.743V225.301H170.95V113.184Z" fill="#DCDCDC"/>
<path d="M149.579 96.5358C163.748 96.5358 172.331 87.1097 172.331 75.4388C172.057 63.5343 163.738 54.3926 150.148 54.3926C136.577 54.3926 127.689 63.5241 127.689 75.4388C127.679 87.1097 136.283 96.5358 149.579 96.5358Z" fill="#DCDCDC"/>
</g>
<defs>
<clipPath id="clip0_33_779">
<rect width="300" height="300" fill="white"/>
</clipPath>
</defs>
</svg>
