<svg width="100" height="100" viewBox="0 0 100 100" fill="none" xmlns="http://www.w3.org/2000/svg">
<g clip-path="url(#clip0_109_88)">
<path d="M88.0489 58.374L85.812 46.9945C85.1995 43.8004 84.1428 41.3618 82.5811 39.5391C80.5681 37.1895 77.744 35.9475 74.4142 35.9475H63.2814V20.3029C63.2814 18.1454 61.5326 16.3966 59.3752 16.3966H52.051C49.8936 16.3966 48.1448 18.1454 48.1448 20.3029C48.1448 22.4603 49.8936 24.2091 52.051 24.2091H55.4689V58.2131H19.5316C17.3742 58.2131 15.6253 59.9619 15.6253 62.1193C15.6253 64.2767 17.3742 66.0255 19.5316 66.0255H84.5704C84.9325 66.0255 85.2815 65.9724 85.6143 65.8802C89.3084 66.3029 92.1875 69.4468 92.1875 73.2521V83.4083H83.7032C82.0907 78.8618 77.7487 75.5958 72.6564 75.5958C67.564 75.5958 63.2222 78.8618 61.6095 83.4083H37.4143C35.8018 78.8618 31.4599 75.5958 26.3675 75.5958C21.2781 75.5958 16.938 78.8581 15.3234 83.4007C11.1553 83.2413 7.81288 79.8022 7.81288 75.5958V48.8186C7.81288 46.6611 6.06406 44.9123 3.90665 44.9123C1.74923 44.9123 0.000410962 46.6611 0.000410962 48.8186V75.596C0.000410962 84.1087 6.84413 91.0483 15.3181 91.2131C16.9285 95.7637 21.2724 99.0334 26.3675 99.0334C31.4599 99.0334 35.8016 95.7674 37.4143 91.2209H61.6097C63.2222 95.7674 67.5642 99.0334 72.6566 99.0334C77.7489 99.0334 82.0907 95.7674 83.7034 91.2209H96.094C98.2514 91.2209 100 89.4721 100 87.3147V73.2523C100 65.9788 94.8762 59.8796 88.0489 58.374ZM63.2814 43.76H74.4142C75.6064 43.76 77.239 43.76 78.1409 48.4736C78.1421 48.4801 78.1435 48.4865 78.1446 48.4932L80.0554 58.2132H63.2816L63.2814 43.76ZM26.3675 91.2207C24.2136 91.2207 22.4613 89.4684 22.4613 87.3145C22.4613 85.1606 24.2136 83.4083 26.3675 83.4083C28.5214 83.4083 30.2737 85.1606 30.2737 87.3145C30.2737 89.4684 28.5214 91.2207 26.3675 91.2207ZM72.6564 91.2207C70.5025 91.2207 68.7501 89.4684 68.7501 87.3145C68.7501 85.1606 70.5025 83.4083 72.6564 83.4083C74.8103 83.4083 76.5626 85.1606 76.5626 87.3145C76.5626 89.4684 74.8103 91.2207 72.6564 91.2207ZM1.70001 19.7249L5.39219 22.2526C5.3793 22.5126 5.37226 22.7743 5.37226 23.0374C5.37226 23.2743 5.37949 23.511 5.39023 23.7476C5.39375 23.8241 5.39844 23.9003 5.40293 23.9765C5.40723 24.0491 5.40976 24.1222 5.41504 24.1948L1.53263 27.1659C-0.0409952 28.3702 -0.46365 30.562 0.549432 32.2649L2.38067 35.3436C3.33009 36.9397 5.27226 37.6465 7.02538 37.0346L11.5258 35.4633C12.4677 36.1829 13.4865 36.7915 14.5642 37.2788L15.3949 41.8934C15.7298 43.7539 17.3488 45.1076 19.2394 45.1076H22.755C24.6741 45.1076 26.3089 43.7135 26.6122 41.8186L27.3312 37.3247C28.6382 36.7461 29.8563 35.9909 30.9589 35.0749L35.3989 36.3887C37.2114 36.9252 39.1483 36.0866 39.9973 34.3975L41.5762 31.2565C42.4383 29.5421 41.9268 27.455 40.37 26.3331L36.611 23.6243C36.6184 23.4286 36.6221 23.2329 36.6221 23.0374C36.6221 22.8001 36.6149 22.563 36.6042 22.3261C36.6007 22.2495 36.596 22.1734 36.5913 22.097C36.5868 22.0222 36.5843 21.9474 36.5788 21.8728L40.4573 18.9107C41.9852 17.7439 42.4368 15.6388 41.5221 13.9478L39.7643 10.698C38.8448 8.99821 36.82 8.22614 35.0026 8.8822L30.3849 10.5486C29.8034 10.1107 29.1903 9.71969 28.5558 9.36813C28.4995 9.33688 28.4439 9.30485 28.3872 9.27438C28.228 9.18864 28.0669 9.107 27.9048 9.02692C27.8214 8.98551 27.7378 8.9445 27.6534 8.90466C27.5786 8.8693 27.5056 8.83024 27.4302 8.79606L26.5995 4.18104C26.2648 2.3205 24.6456 0.966797 22.755 0.966797H19.0441C17.096 0.966797 15.4457 2.40214 15.1755 4.33143L14.5498 8.80016C13.3998 9.32067 12.3181 9.97906 11.3256 10.763L6.79277 9.34782C4.96699 8.7779 2.99708 9.61325 2.13829 11.322L0.41662 14.7474C-0.461501 16.4941 0.0869341 18.6206 1.70001 19.7249ZM13.1972 22.6046C13.1982 22.5866 13.2002 22.5689 13.2013 22.5509C13.2095 22.421 13.2203 22.2911 13.2351 22.1612C13.2363 22.1501 13.2381 22.139 13.2394 22.1278C13.2556 21.9909 13.2752 21.8538 13.2986 21.7173C13.2998 21.7101 13.3011 21.7028 13.3025 21.6954C13.3263 21.5591 13.3539 21.4228 13.3849 21.2872C13.7125 19.8624 14.4297 18.5855 15.4193 17.5749C15.4443 17.5493 15.4689 17.5234 15.4943 17.498C15.5734 17.4195 15.6539 17.3425 15.7363 17.2673C15.7519 17.2531 15.7681 17.2394 15.7837 17.2251C15.95 17.0759 16.1224 16.9335 16.3009 16.7988C16.3128 16.7898 16.3246 16.7804 16.3365 16.7716C16.6203 16.5599 16.9195 16.3677 17.231 16.1954C17.2537 16.1829 17.2763 16.1701 17.2992 16.1578C17.3974 16.1046 17.4968 16.0537 17.5976 16.0046C17.6292 15.9892 17.6617 15.9751 17.6935 15.9603C17.8529 15.8857 18.0152 15.8167 18.18 15.7527C18.2466 15.7269 18.3132 15.7011 18.3806 15.6773C18.4587 15.6494 18.5373 15.6226 18.6165 15.5972C18.7244 15.5628 18.8331 15.5308 18.9427 15.5011C19.5978 15.3222 20.2863 15.2249 20.9972 15.2249C21.723 15.2249 22.4251 15.3267 23.0925 15.5126C23.2009 15.5427 23.3083 15.5751 23.4152 15.6097C23.4786 15.6304 23.5417 15.6517 23.6044 15.674C23.6988 15.7074 23.7919 15.7435 23.8847 15.7804C23.9728 15.8156 24.0601 15.8521 24.1466 15.8904C24.2407 15.932 24.3343 15.9746 24.4265 16.0199C24.4945 16.0533 24.5616 16.0882 24.6286 16.1236C24.7034 16.163 24.7775 16.2042 24.8511 16.246C24.9134 16.2816 24.9765 16.3163 25.0378 16.3535C25.1558 16.4249 25.2716 16.5001 25.3859 16.5779C25.4417 16.616 25.496 16.6558 25.5509 16.6952C25.6292 16.7517 25.7066 16.8095 25.7829 16.8689C25.8319 16.907 25.8812 16.9447 25.9292 16.9839C26.0435 17.0773 26.1556 17.1734 26.265 17.2736C26.2997 17.3054 26.3331 17.3386 26.3671 17.371C26.453 17.4527 26.5374 17.5361 26.62 17.6218C27.573 18.6109 28.2677 19.8493 28.5962 21.2288C28.621 21.3331 28.6444 21.4378 28.6648 21.5431C28.6741 21.5911 28.6823 21.6398 28.6907 21.6882C28.7085 21.7896 28.7243 21.8913 28.738 21.9933C28.7444 22.0415 28.7509 22.0898 28.7565 22.1384C28.7689 22.2456 28.7784 22.3532 28.7864 22.4609C28.7896 22.5034 28.7937 22.5456 28.7962 22.5884C28.8048 22.7378 28.8101 22.8874 28.8101 23.0374C28.8101 23.3073 28.796 23.5776 28.7683 23.8466C28.7671 23.8587 28.7649 23.8706 28.7636 23.8827C28.7507 24.0026 28.7355 24.1224 28.7171 24.2417C28.7097 24.2898 28.6997 24.337 28.6915 24.3849C28.6774 24.4655 28.664 24.5462 28.6474 24.6263C28.3685 25.971 27.7417 27.189 26.8673 28.1847C26.7544 28.3134 26.639 28.439 26.5191 28.5591C26.4921 28.586 26.4636 28.6114 26.4362 28.638C26.3429 28.729 26.2472 28.8167 26.1499 28.9024C26.0976 28.9485 26.0454 28.9948 25.9917 29.0395C25.8835 29.13 25.773 29.2173 25.6605 29.3016C25.5902 29.3542 25.5179 29.4042 25.4456 29.4544C25.3841 29.4972 25.3218 29.5388 25.2591 29.5798C25.1421 29.6563 25.0228 29.7296 24.9015 29.7997C24.8298 29.8413 24.7581 29.8829 24.6851 29.9221C24.6066 29.9643 24.5271 30.0048 24.447 30.0442C24.3616 30.0864 24.2751 30.1264 24.1882 30.1653C24.0964 30.2065 24.0036 30.2464 23.9099 30.2841C23.7976 30.3292 23.6845 30.3723 23.5698 30.4122C23.5142 30.4317 23.4581 30.4509 23.4019 30.4692C23.2423 30.5206 23.0814 30.5686 22.9179 30.61C22.3033 30.7661 21.6599 30.8495 20.9974 30.8495C20.2736 30.8495 19.5732 30.7485 18.9076 30.5634C18.7955 30.5323 18.6843 30.4987 18.574 30.4628C18.5115 30.4423 18.4492 30.4216 18.3873 30.3995C18.2894 30.3649 18.1929 30.3274 18.0968 30.2887C18.0029 30.2511 17.9101 30.2116 17.8179 30.1706C17.7326 30.1325 17.6476 30.0936 17.5636 30.0524C17.4914 30.0169 17.4201 29.98 17.349 29.9425C17.2796 29.9057 17.2113 29.8673 17.1429 29.8284C17.0447 29.7723 16.9476 29.7147 16.8521 29.6546C16.7687 29.6022 16.6857 29.5493 16.6044 29.4936C16.5392 29.4491 16.4753 29.4028 16.4117 29.3565C16.3437 29.3069 16.2765 29.2561 16.2101 29.2044C16.1533 29.16 16.0957 29.1165 16.04 29.0706C15.9318 28.9813 15.8259 28.889 15.7222 28.7938C15.6742 28.7497 15.6275 28.704 15.5806 28.6589C15.5076 28.5884 15.4357 28.5163 15.365 28.4427C14.4183 27.4565 13.7277 26.2241 13.3998 24.8513C13.374 24.7425 13.3496 24.6333 13.3285 24.5235C13.3199 24.479 13.3123 24.4341 13.3045 24.3894C13.2861 24.2845 13.2699 24.1794 13.2558 24.0739C13.2498 24.0282 13.2435 23.9825 13.2382 23.9366C13.2257 23.8276 13.216 23.7183 13.208 23.6087C13.205 23.5677 13.2009 23.5269 13.1986 23.4857C13.19 23.3362 13.1847 23.1866 13.1847 23.037C13.1847 22.8935 13.189 22.7491 13.1972 22.6046Z" fill="white"/>
</g>
<defs>
<clipPath id="clip0_109_88">
<rect width="100" height="100" fill="white"/>
</clipPath>
</defs>
</svg>
