<svg width="100" height="100" viewBox="0 0 100 100" fill="none" xmlns="http://www.w3.org/2000/svg">
<path d="M76.3672 13.6719V1.95312H47.0703V13.6719H23.4375V25.3906H11.7188V37.1094H0V98.0469H76.5625V86.3281H88.2812V74.6094H100V13.6719H76.3672ZM52.9297 7.8125H70.5078V13.6719H52.9297V7.8125ZM70.7031 92.1875H5.85938V42.9688H11.7188V86.3281H70.7031V92.1875ZM82.4219 80.4688H17.5781V31.25H23.4375V74.6094H82.4219V80.4688ZM29.2969 68.75V49.5953C31.0221 50.5959 33.0225 51.1719 35.1562 51.1719H52.9297V62.8906H70.5078V51.1719H88.2812C90.415 51.1719 92.4154 50.5959 94.1406 49.5953V68.75H29.2969ZM58.7891 51.1719H64.6484V57.0312H58.7891V51.1719ZM88.2812 45.3125H35.1562C31.9254 45.3125 29.2969 42.684 29.2969 39.4531V19.5312H94.1406V39.4531C94.1406 42.684 91.5121 45.3125 88.2812 45.3125Z" fill="white"/>
</svg>
