<svg width="100" height="100" viewBox="0 0 100 100" fill="none" xmlns="http://www.w3.org/2000/svg">
<path d="M29.5672 91.6947C28.3535 91.6898 27.1553 91.4217 26.0552 90.9089C24.955 90.3961 23.9792 89.6508 23.195 88.7244C22.4108 87.7981 21.8368 86.7126 21.5126 85.543C21.1884 84.3733 21.1218 83.1472 21.3172 81.9493L24.5399 62.0927L10.7093 47.8104C9.63683 46.7062 8.88867 45.3284 8.54667 43.8276C8.20468 42.3268 8.28203 40.7609 8.77027 39.3011C9.25851 37.8413 10.1388 36.5439 11.3149 35.5509C12.491 34.5578 13.9175 33.9073 15.4385 33.6706L34.1702 30.7956L42.4241 13.1627C43.1156 11.7418 44.1927 10.544 45.5324 9.70611C46.8721 8.86817 48.4204 8.42383 50.0006 8.42383C51.5807 8.42383 53.1291 8.86817 54.4688 9.70611C55.8085 10.544 56.8855 11.7418 57.577 13.1627L65.8037 30.7704L84.5622 33.6706C86.0832 33.9073 87.5097 34.5578 88.6858 35.5509C89.8619 36.5439 90.7422 37.8413 91.2304 39.3011C91.7187 40.7609 91.796 42.3268 91.454 43.8276C91.1121 45.3284 90.3639 46.7062 89.2914 47.8104L75.4749 62.0356L78.6856 81.9522C78.941 83.504 78.7541 85.0962 78.1463 86.5466C77.5385 87.997 76.5344 89.2468 75.2491 90.1529C73.9638 91.0589 72.4492 91.5846 70.8789 91.6696C69.3087 91.7546 67.7462 91.3955 66.3706 90.6335L50.0112 81.5502L33.6314 90.6335C32.3892 91.3277 30.9902 91.693 29.5672 91.6947ZM49.9997 73.2079C51.4185 73.2092 52.8135 73.5726 54.0524 74.2639L70.4139 83.35L67.232 63.4281C67.0258 62.1353 67.1228 60.8124 67.5154 59.5635C67.908 58.3147 68.5855 57.1742 69.4943 56.232L83.3122 42.0039L64.5643 39.0316C63.2032 38.8229 61.9147 38.2812 60.8134 37.4545C59.7122 36.6278 58.8322 35.5418 58.2518 34.2931L50.0283 16.6906H50.0262C50.0212 16.6759 50.0136 16.6621 50.0039 16.65L41.7437 34.2972C41.164 35.5449 40.2849 36.63 39.1847 37.4559C38.0844 38.2819 36.7971 38.8232 35.4372 39.0316L16.7035 41.9066L30.5035 56.2295C31.4128 57.1715 32.0906 58.3119 32.4836 59.5607C32.8766 60.8096 32.9739 62.1327 32.7679 63.4256L29.5433 83.2864L45.9454 74.2656C47.1846 73.5734 48.5802 73.2093 49.9997 73.2079Z" fill="white"/>
</svg>
