<svg width="100" height="100" viewBox="0 0 100 100" fill="none" xmlns="http://www.w3.org/2000/svg">
<path d="M76.667 10H63.3337V8.33333C63.328 3.73291 59.6007 0.00569662 55.0003 0H45.0003C40.3999 0.00569662 36.6727 3.73291 36.667 8.33333V10H23.3337C16.8932 10.0073 11.6743 15.2262 11.667 21.6667V88.3333C11.6743 94.7738 16.8932 99.9927 23.3337 100H76.667C83.1066 99.9919 88.3255 94.7729 88.3337 88.3333V21.6667C88.3255 15.2271 83.1066 10.0081 76.667 10ZM40.0003 18.3333V8.33333C40.0003 5.5721 42.2391 3.33333 45.0003 3.33333H55.0003C57.7616 3.33333 60.0003 5.5721 60.0003 8.33333V18.3333C60.0003 19.2537 60.7466 20 61.667 20C66.2674 20.0057 69.9946 23.7329 70.0003 28.3333V30H30.0003V28.3333C30.006 23.7329 33.7332 20.0057 38.3337 20C39.2541 20 40.0003 19.2537 40.0003 18.3333ZM71.667 33.3333C72.5874 33.3333 73.3337 32.5871 73.3337 31.6667V28.3333H78.3337V90H21.667V28.3333H26.667V31.6667C26.667 32.5871 27.4132 33.3333 28.3337 33.3333H71.667ZM85.0003 88.3333C84.9946 92.9338 81.2674 96.661 76.667 96.6667H23.3337C18.7332 96.661 15.006 92.9338 15.0003 88.3333V21.6667C15.006 17.0662 18.7332 13.339 23.3337 13.3333H36.667V16.7847C32.174 17.4471 28.4704 20.6494 27.1667 25H21.667C19.8262 25 18.3337 26.4925 18.3337 28.3333V90C18.3337 91.8408 19.8262 93.3333 21.667 93.3333H78.3337C80.1745 93.3333 81.667 91.8408 81.667 90V28.3333C81.667 26.4925 80.1745 25 78.3337 25H72.834C71.5303 20.6494 67.8267 17.4471 63.3337 16.7847V13.3333H76.667C81.2674 13.339 84.9946 17.0662 85.0003 21.6667V88.3333Z" fill="white"/>
<path d="M50 16.666C52.7612 16.666 55 14.4272 55 11.666C55 8.90479 52.7612 6.66602 50 6.66602C47.2388 6.66602 45 8.90479 45 11.666C45 14.4272 47.2388 16.666 50 16.666ZM50 9.99935C50.9204 9.99935 51.6667 10.7456 51.6667 11.666C51.6667 12.5864 50.9204 13.3327 50 13.3327C49.0796 13.3327 48.3333 12.5864 48.3333 11.666C48.3333 10.7456 49.0796 9.99935 50 9.99935Z" fill="white"/>
<path d="M25 78.3338C24.987 81.8014 27.6343 84.7002 31.0889 85.0005C34.5435 85.3008 37.6522 82.9025 38.2374 79.4845C38.8233 76.0666 36.6911 72.7707 33.3334 71.904V71.6672C33.3391 67.0667 37.0663 63.3395 41.6667 63.3338H58.3334C64.773 63.3257 69.9919 58.1068 70 51.6672V51.4303C73.2504 50.5913 75.3703 47.4655 74.9472 44.1354C74.524 40.8053 71.6903 38.3086 68.3334 38.3086C64.9764 38.3086 62.1428 40.8053 61.7196 44.1354C61.2964 47.4655 63.4164 50.5913 66.6667 51.4303V51.6672C66.661 56.2676 62.9338 59.9948 58.3334 60.0005H41.6667C35.2263 60.0078 30.0074 65.2267 30 71.6672V71.904C27.0655 72.6616 25.0114 75.3032 25 78.3338ZM65 45.0005C65 43.1597 66.4926 41.6672 68.3334 41.6672C70.1742 41.6672 71.6667 43.1597 71.6667 45.0005C71.6667 46.8413 70.1742 48.3338 68.3334 48.3338C66.4926 48.3338 65 46.8413 65 45.0005ZM35 78.3338C35 80.1746 33.5075 81.6672 31.6667 81.6672C29.8259 81.6672 28.3334 80.1746 28.3334 78.3338C28.3334 76.493 29.8259 75.0005 31.6667 75.0005C33.5075 75.0005 35 76.493 35 78.3338Z" fill="white"/>
<path d="M59.0234 70.2871L56.6667 72.6439L54.3099 70.2871L51.9531 72.6439L54.3099 75.0007L51.9531 77.3574L54.3099 79.7142L56.6667 77.3574L59.0234 79.7142L61.3802 77.3574L59.0234 75.0007L61.3802 72.6439L59.0234 70.2871Z" fill="white"/>
<path d="M35.9769 54.7142L38.3337 52.3574L40.6904 54.7142L43.0472 52.3574L40.6904 50.0007L43.0472 47.6439L40.6904 45.2871L38.3337 47.6439L35.9769 45.2871L33.6201 47.6439L35.9769 50.0007L33.6201 52.3574L35.9769 54.7142Z" fill="white"/>
</svg>
