<svg width="100" height="100" viewBox="0 0 100 100" fill="none" xmlns="http://www.w3.org/2000/svg">
<g clip-path="url(#clip0_109_16)">
<g clip-path="url(#clip1_109_16)">
<path d="M75.526 46.0315L77.3427 47.1793C78.0367 47.6147 78.9145 47.5553 79.2819 47.0606L79.5881 46.6054L80.0984 45.8534L92.3458 28.339C92.3866 28.2598 92.407 28.1609 92.3866 28.0619C92.3254 27.8443 92.1825 27.6464 91.9783 27.5276L89.5697 26.0038C88.7124 25.4496 87.7122 25.1528 86.6916 25.1528C85.2627 25.133 83.9155 25.7861 83.099 26.9141L73.9134 40.0548C73.3215 40.9256 73.1174 41.9943 73.3419 43.0036C73.6277 44.2503 74.4033 45.3586 75.526 46.0315Z" fill="white"/>
<path d="M31.5781 50.0491C31.5781 59.6276 39.5798 67.3854 49.4593 67.3854C59.3389 67.3854 67.3405 59.6276 67.3405 50.0491C67.3405 40.4707 59.3389 32.7129 49.4593 32.7129C39.5798 32.7327 31.5985 40.4707 31.5781 50.0491ZM49.4593 51.8105L56.3383 42.0737H60.4616V51.7511H62.2783V54.9967H60.4616V58.1038H56.4403V54.9967H49.4593V51.8105ZM45.7647 43.7954C46.9078 45.0422 47.3977 46.7639 47.1731 48.6242C46.9078 50.7814 45.0299 52.9583 43.0907 54.6603H47.5814V58.1038H36.9262V54.9373C39.5593 53.2947 43.3969 50.1085 43.6418 48.2086C43.7439 47.3379 43.5602 46.5858 43.0907 46.0713C42.6416 45.6161 42.0292 45.3786 41.3965 45.4182C40.0901 45.4182 38.9062 46.19 38.4367 47.3774L35.1299 46.1307C36.1505 43.6371 38.6408 41.9945 41.3965 41.9945C43.0499 41.9549 44.642 42.608 45.7647 43.7954Z" fill="white"/>
<path d="M57.3998 77.6179C57.3385 77.4002 57.1956 77.2221 57.0119 77.1033L54.5829 75.5795C53.746 75.0254 52.7458 74.7285 51.7251 74.7285C50.2759 74.7285 48.9082 75.342 48.1122 76.4898L38.947 89.6306L38.8245 89.7889C38.7429 89.9076 38.6817 90.0264 38.6408 90.1649C37.7835 91.946 38.5592 94.2021 40.58 95.627L40.7229 95.7259C41.2944 96.0426 42.8049 96.6165 43.7847 96.9331H43.846C44.0297 96.8738 44.1726 96.755 44.295 96.6165L44.7033 96.003L57.3589 77.895C57.3998 77.8158 57.4202 77.7168 57.3998 77.6179Z" fill="white"/>
<path d="M39.4575 97.2887H39.4371C36.7631 95.5868 35.62 92.5391 36.5385 89.9268C15.4118 83.2377 2.87861 61.884 7.92046 40.7481C11.2068 26.8949 21.5559 15.6145 35.3546 10.8253C35.8854 10.6471 36.4773 10.9044 36.661 11.419L37.8449 14.4864L45.9282 3.00811L32.4969 0L33.8645 3.2456C33.9666 3.50287 33.9666 3.77993 33.8441 4.01742C33.7216 4.2549 33.5175 4.4528 33.2522 4.55175C17.1672 10.0534 5.10356 23.1546 1.28645 39.2638C-4.9189 65.2484 11.86 91.2923 38.6614 97.3085C39.0084 97.3877 39.3554 97.4273 39.7025 97.4471L39.58 97.3679L39.4575 97.2887Z" fill="white"/>
<path d="M89.8147 78.7061C93.5502 74.0356 96.3467 68.0788 98.1021 60.9741C99.3473 55.8088 99.98 50.505 100 45.2013C100 41.8567 99.7147 39.284 99.3677 38.0174C98.7757 35.9592 95.9384 32.8126 93.346 30.418L90.7128 34.2177L82.4254 46.072C83.6298 46.9428 85.6098 48.526 86.018 49.9311C86.6304 52.1674 86.4875 57.8472 85.1403 60.1033C82.4459 64.5759 76.3426 73.3034 73.0358 77.4198C72.4438 78.152 71.3007 78.9832 69.9943 79.7154C69.9127 79.8935 69.7698 80.0518 69.5861 80.1706C69.4228 80.2695 69.2391 80.3091 69.0554 80.3091H68.9125C66.8917 81.3382 64.6667 82.1496 63.4216 82.3079C62.1764 82.4663 60.523 81.833 58.0327 80.4674L54.6851 85.2765L47.0713 96.1611C49.0513 96.9923 51.0925 97.6849 53.1746 98.1995V98.0016H60.0535C62.5847 97.3485 65.075 96.5173 67.4632 95.4882C73.6073 92.8759 82.4867 87.8492 89.8147 78.7061Z" fill="white"/>
<path d="M56.5425 47.5352H56.0322L53.3174 51.7505H56.4405L56.5425 47.5352Z" fill="white"/>
<path d="M90.4683 97.0307L88.9373 93.6466L88.8761 93.5872C87.9984 92.3405 86.3654 91.8061 84.8753 92.2811C83.9567 92.5779 83.2423 93.2904 82.9769 94.2007L82.038 97.2682C82.038 97.3078 81.9971 97.3672 81.9563 97.387C81.4868 97.7828 80.8949 98.0005 80.2621 98.0203H66.5246C64.5038 98.8317 62.4217 99.4847 60.2988 99.9993H80.2621C81.3848 99.9993 82.487 99.6035 83.3239 98.8712C83.6505 98.5942 83.8751 98.2182 83.9975 97.8224L84.9161 94.7549C85.0182 94.4778 85.2223 94.2601 85.5081 94.1612C86.1 93.9633 86.7532 94.1414 87.141 94.6163L88.672 98.0005L88.7332 98.0796C89.5905 99.2868 90.999 99.9993 92.5095 99.9993H98.4086V98.0203H92.5095C91.7134 98.0203 90.9581 97.6442 90.4683 97.0307Z" fill="white"/>
<path d="M21.9032 70.0776C22.0869 70.0776 22.2706 70.038 22.4339 69.939L27.9452 66.6737C28.4351 66.3966 28.578 65.7831 28.2922 65.3081C28.0065 64.8332 27.3737 64.6946 26.8838 64.9717L21.3725 68.2569C20.903 68.5339 20.7397 69.1276 21.005 69.5828C21.005 69.5828 21.005 69.6026 21.0254 69.6026C21.2092 69.8995 21.5358 70.0776 21.9032 70.0776Z" fill="white"/>
<path d="M15.5547 51.8899C15.5547 52.444 16.0038 52.8794 16.5753 52.8794H23.046C23.6176 52.8794 24.0666 52.444 24.0666 51.8899C24.0666 51.3358 23.6176 50.9004 23.046 50.9004H16.5753C16.0038 50.9004 15.5547 51.3358 15.5547 51.8899Z" fill="white"/>
<path d="M25.6791 39.8187C25.8219 39.8979 26.0057 39.9374 26.169 39.9374C26.5364 39.9374 26.8834 39.7395 27.0671 39.4229C27.3325 38.9479 27.1487 38.3542 26.6589 38.0772L20.9842 35.069C20.4943 34.8118 19.8615 34.9899 19.5962 35.4648C19.3308 35.9398 19.5145 36.5533 20.0044 36.8106L25.6791 39.8187Z" fill="white"/>
<path d="M37.069 74.7075L33.9663 80.2092C33.7009 80.6842 33.8847 81.2779 34.3745 81.5549C34.5174 81.6341 34.7011 81.6737 34.8644 81.6737C35.2319 81.6737 35.5789 81.4758 35.7626 81.1591L38.8653 75.6377C39.1306 75.1627 38.9469 74.569 38.4774 74.3117H38.457C37.9875 74.0346 37.3752 74.2128 37.0894 74.6679C37.0894 74.6877 37.069 74.6877 37.069 74.7075Z" fill="white"/>
<path d="M35.8243 29.7044C36.008 29.7044 36.1917 29.6648 36.355 29.5658C36.8449 29.2888 36.9878 28.6753 36.702 28.2003L33.3136 22.857C33.0278 22.382 32.395 22.2435 31.9051 22.5205C31.4357 22.8174 31.2928 23.4111 31.5786 23.886L34.9466 29.2294C35.1303 29.5263 35.4569 29.7044 35.8243 29.7044Z" fill="white"/>
</g>
</g>
<defs>
<clipPath id="clip0_109_16">
<rect width="100" height="100" fill="white"/>
</clipPath>
<clipPath id="clip1_109_16">
<rect width="100" height="100" fill="white"/>
</clipPath>
</defs>
</svg>
