<svg width="100" height="100" viewBox="0 0 100 100" fill="none" xmlns="http://www.w3.org/2000/svg">
<g clip-path="url(#clip0_109_74)">
<path d="M50.1192 -0.195312L48.0476 1.87226C39.8788 10.025 29.2815 11.7363 21.8291 11.7363H12.0352V47.8486C12.0352 71.2495 27.0142 92.1183 49.1927 99.4967L50.1192 99.8049L51.0457 99.4967C73.2096 92.1228 88.2032 71.2633 88.2032 47.8486V11.7363H78.4093C70.9576 11.7363 60.3595 10.025 52.1908 1.87226L50.1192 -0.195312ZM82.3446 17.5843V47.8486C82.3446 68.4984 69.4364 86.7723 50.1192 93.6304C30.802 86.7723 17.8945 68.4984 17.8945 47.8486V17.5843H21.8291C33.0219 17.5843 42.7394 14.2548 50.1192 7.92467C57.499 14.2548 67.2165 17.5843 78.4093 17.5843H82.3446Z" fill="white"/>
<path d="M48.5121 16.4994C42.7575 20.2675 35.9418 22.3404 26.4124 23.2216L23.7529 23.4673V47.8478C23.7529 64.7096 33.6325 80.0218 48.9219 86.8563L50.119 87.3918L51.3168 86.8563C66.6055 80.0218 76.485 64.7096 76.485 47.8478V23.4673L73.8256 23.2216C64.2961 22.3404 57.4805 20.2675 51.7258 16.4994L50.119 15.4473L48.5121 16.4994ZM29.6123 46.7294L70.6256 34.4491V47.8478C70.6256 49.5416 70.5094 51.217 70.2847 52.8657L33.2854 63.9436C30.9134 59.0211 29.6123 53.5371 29.6123 47.8478V46.7294ZM50.119 80.958C44.5126 78.2037 39.8121 74.0991 36.3301 69.1369L68.7757 59.4224C65.7256 68.7097 59.0774 76.5565 50.119 80.958ZM69.6632 28.6324L29.6123 40.6243V28.7598C37.901 27.7443 44.5134 25.6897 50.119 22.3877C55.5052 25.56 61.8247 27.5788 69.6632 28.6324Z" fill="white"/>
</g>
<defs>
<clipPath id="clip0_109_74">
<rect width="100" height="100" fill="white"/>
</clipPath>
</defs>
</svg>
