<svg width="50" height="51" viewBox="0 0 50 51" fill="none" xmlns="http://www.w3.org/2000/svg">
<path fill-rule="evenodd" clip-rule="evenodd" d="M22.5963 0.887232C17.7014 1.40393 13.0967 3.29288 9.25287 6.36091C8.18871 7.21031 6.35386 9.045 5.50105 10.1124C2.76696 13.5345 1.00767 17.4775 0.240397 21.9028C-0.0583407 23.6262 -0.0841478 27.847 0.193866 29.5192C0.689383 32.4992 1.47621 34.9072 2.76559 37.3894C3.96406 39.6966 5.42207 41.6814 7.29348 43.553C11.4104 47.6705 16.6961 50.1817 22.5263 50.7903C23.9426 50.9381 27.336 50.8562 28.706 50.6411C31.286 50.236 33.6364 49.4932 35.9887 48.3397C38.5708 47.0734 40.6655 45.577 42.6892 43.553C46.7447 39.497 49.1683 34.4842 49.8784 28.6833C50.0769 27.062 50.0243 23.5835 49.7795 22.1378C48.8313 16.5376 46.5235 11.9872 42.6881 8.15513C39.4745 4.94427 35.603 2.72388 31.253 1.59682C29.1025 1.03965 27.9983 0.903657 25.3823 0.873545C24.0651 0.858391 22.8114 0.86455 22.5963 0.887232ZM32.3989 14.2675L39.6097 18.7648L32.3005 18.7898C28.2805 18.8036 21.7024 18.8036 17.6825 18.7898L10.3736 18.7648L17.6092 14.2452C21.5887 11.7595 24.9219 9.73573 25.0164 9.74795C25.1108 9.76017 28.4329 11.794 32.3989 14.2675ZM17.9434 23.9424C21.4598 26.1346 24.4727 27.9672 24.6389 28.0148C24.8051 28.0625 25.0794 28.0755 25.2486 28.0438C25.4177 28.0121 28.7833 25.9736 32.7275 23.5139L39.8989 19.0418L39.9239 26.5265C39.9518 34.8329 39.9723 34.5387 39.3088 35.3139C39.1223 35.5318 38.7413 35.8239 38.462 35.9632L37.9543 36.2162H24.9913H12.0284L11.5207 35.9632C11.2414 35.8239 10.8612 35.5329 10.6759 35.3162C10.0128 34.5415 10.0349 34.8452 10.0349 26.5192V19.0078L10.7925 19.4823C11.2092 19.7431 14.4271 21.7503 17.9434 23.9424Z" fill="white"/>
</svg>
