<svg width="260" height="100" viewBox="0 0 260 100" fill="none" xmlns="http://www.w3.org/2000/svg">
<path d="M69.111 18.065C66.45 8.77992 59.8034 1.2321 58.9102 0C57.4657 1.72986 52.1806 8.3955 49.4579 15.793C46.535 24.0308 46.11 31.3445 47.1171 38.5498C48.1243 45.7551 51.9126 53.1452 51.9126 53.1452C53.9392 57.0313 56.9668 61.1908 58.9318 63.2386C61.8239 60.2347 68.4673 51.2577 70.5494 39.5503C71.7105 33.0424 71.7413 27.3427 69.111 18.065ZM58.9072 60.9272C57.6074 58.9632 55.5777 55.2275 55.3806 49.444C55.319 43.8602 58.1249 39.0846 58.938 38.0866C59.6556 39.0846 62.0888 43.2466 62.3813 48.9463C62.5477 54.535 60.2285 58.9213 58.9072 60.9272ZM68.3318 33.8161C68.2486 37.3522 67.7281 41.0978 67.0321 43.3279C67.2908 39.4764 66.7087 34.0502 65.5876 29.8069C64.4849 25.5709 61.365 18.4913 58.8486 15.2115C56.5387 18.3311 53.702 24.4546 52.2021 29.765C50.7268 35.0827 50.6745 41.5143 50.6745 43.4437C50.2679 41.8223 49.2916 36.0216 49.5718 30.1962C49.7998 25.3861 51.195 20.4528 51.9742 18.1808C54.9186 10.5936 58.245 5.74157 58.8486 4.96781C59.4831 5.74157 63.6749 11.7074 65.8463 17.9812C68.0084 24.2649 68.4458 30.2726 68.3318 33.8161Z" fill="white"/>
<path d="M63.3792 65.4019H43.2332V76.2198C43.264 76.2025 43.2948 76.1852 43.2948 76.1778C48.0379 72.383 55.7532 72.383 60.4871 76.1778C65.2302 79.9801 65.2302 86.1381 60.4871 89.933C60.4563 89.9502 60.4563 89.9675 60.4255 89.9749V89.9823C60.3947 89.9995 60.3639 90.0168 60.3423 90.0315C55.63 93.7919 49.4239 95.6721 43.2332 95.6721C37.0241 95.6721 30.8056 93.7746 26.0625 89.9798C17.722 83.2895 16.7334 72.9547 23.0873 65.3995C23.9497 64.3768 24.9383 63.4109 26.0625 62.5041C30.8056 58.7092 37.0148 56.8118 43.2332 56.8118V30.8047C19.3667 30.8047 0 46.2971 0 65.4019C0 84.5068 19.3636 99.9918 43.2332 99.9918C55.6916 99.9918 66.9026 95.7805 74.7965 89.0409V65.4019H63.3792ZM100.351 93.8264C100.351 96.2487 99.9751 99.9992 93.9015 99.9992H86.7344C80.6916 99.9992 80.3189 96.2462 80.3189 93.8264V71.5846C80.3189 69.1623 80.6946 65.4019 86.7344 65.4019H93.9015C99.9751 65.4019 100.351 69.1549 100.351 71.5846V76.476H91.6777V70.8355C91.6777 70.2441 91.1264 69.7044 90.3164 69.7044C89.8267 69.7044 88.9551 69.9459 88.9551 70.8355V94.4252C88.9551 95.3148 89.8174 95.5563 90.3164 95.5563C91.1264 95.5563 91.6777 95.0166 91.6777 94.4252V86.8527H90.378V83.0505H100.351V93.8264ZM113.351 87.003L114.827 69.7118H115.316L116.813 87.003H113.351ZM103.782 99.9992H112.249L113.028 90.8127H117.106L117.916 99.9992H126.383L121.87 65.4093H108.288L103.782 99.9992ZM129.595 95.6474L137.895 69.7118H130.47V65.4019H146.766V69.7044L138.499 95.5563H147.286V99.9918H129.595V95.6474ZM160.006 83.9253V69.697H161.109C162.067 69.697 162.732 70.3377 162.732 71.4269V82.193C162.732 83.2821 162.067 83.9228 161.109 83.9228H160.006V83.9253ZM151.33 99.9992H160.003V88.2425H164.944C170.986 88.2425 171.359 84.4896 171.359 82.0697V71.5846C171.359 69.1623 170.983 65.4019 164.944 65.4019H151.33V99.9992ZM184.455 82.8829V69.6946H185.579C186.506 69.6946 187.172 70.3353 187.172 71.4244V81.1506C187.172 82.2398 186.506 82.8805 185.579 82.8805H184.455V82.8829ZM196.935 99.9992L192.682 86.5102C195.749 85.5196 195.802 83.2476 195.802 82.3088V71.5846C195.802 69.1623 195.46 65.4019 189.386 65.4019H175.803V99.9918H184.446V87.2026H185.08L188.025 99.9992H196.935ZM212.951 94.4252C212.951 95.0166 212.399 95.5661 211.589 95.5661C211.1 95.5661 210.228 95.3172 210.228 94.4252V70.8355C210.228 69.9459 211.09 69.7044 211.589 69.7044C212.399 69.7044 212.951 70.2441 212.951 70.8355V94.4252ZM201.595 93.8264C201.595 96.2487 201.971 99.9992 208.044 99.9992H215.178C221.251 99.9992 221.627 96.2462 221.627 93.8264V71.5846C221.627 69.1623 221.251 65.4019 215.178 65.4019H208.044C201.971 65.4019 201.595 69.1549 201.595 71.5846V93.8264ZM248.758 65.4118H260V99.9992H251.358V78.3069H251.034L246.584 99.9992H239.678L235.228 78.3069H234.905V99.9992H226.262V65.4118H237.504L243.11 89.726L248.758 65.4118Z" fill="white"/>
</svg>
