<svg width="18" height="26" viewBox="0 0 18 26" fill="none" xmlns="http://www.w3.org/2000/svg">
<path d="M9 12.4C8.14752 12.4 7.32995 12.0839 6.72716 11.5213C6.12436 10.9587 5.78571 10.1957 5.78571 9.4C5.78571 8.60435 6.12436 7.84129 6.72716 7.27868C7.32995 6.71607 8.14752 6.4 9 6.4C9.85248 6.4 10.67 6.71607 11.2728 7.27868C11.8756 7.84129 12.2143 8.60435 12.2143 9.4C12.2143 9.79397 12.1311 10.1841 11.9696 10.5481C11.8081 10.912 11.5713 11.2427 11.2728 11.5213C10.9744 11.7999 10.62 12.0209 10.2301 12.1716C9.84008 12.3224 9.42211 12.4 9 12.4ZM9 1C6.61305 1 4.32387 1.885 2.63604 3.4603C0.948211 5.03561 0 7.17218 0 9.4C0 15.7 9 25 9 25C9 25 18 15.7 18 9.4C18 7.17218 17.0518 5.03561 15.364 3.4603C13.6761 1.885 11.3869 1 9 1Z" fill="white"/>
</svg>
