<svg width="196" height="181" viewBox="0 0 196 181" fill="none" xmlns="http://www.w3.org/2000/svg">
<path d="M107.052 150.02C107.052 167.13 93.1812 181 76.0715 181C58.9613 181 45.0908 167.13 45.0908 150.02C45.0908 132.911 58.9613 119.041 76.0715 119.041C93.1812 119.041 107.052 132.911 107.052 150.02Z" fill="white"/>
<path d="M195.5 139.713H134.588C134.586 109.541 134.582 22.465 134.582 4.95547C134.582 1.99521 133.453 0.734772 130.209 0.734772C105.591 0.734772 80.6366 0.734194 55.8316 0.803757C42.4237 0.841808 21.2912 7.59053 12.2652 19.0552C12.4697 19.0552 92.2347 19.0624 92.4339 19.0636C91.7775 20.0481 72.9876 47.898 69.3786 53.2882C68.9553 53.9202 66.2168 55.4102 64.6513 55.4155C62.4104 55.4232 9.54092 55.387 5.28387 55.4458C2.75104 55.4809 -0.0124772 57.783 0.00119764 60.0595C0.00714324 61.0744 0.0101332 66.1477 0.0113223 73.3299H37.9924H42.319C42.319 73.3299 37.0571 83.5115 21.3649 83.7589L0.0124835 83.769C0.011889 88.3862 0.0112999 93.3591 0.0107054 98.3979H32.6467C32.6467 98.3979 27.3848 108.58 11.6926 108.827L0.00892721 108.833C0.00773809 113.971 0.00656 118.954 0.00537088 123.466H21.529C21.529 123.466 16.2672 133.647 0.574964 133.895L0.00239518 133.895C0.00120606 139.599 9.96033e-08 143.241 9.96033e-08 143.337C-0.00059446 147.943 2.66066 149.91 7.26315 149.894C9.26919 149.887 19.8857 149.895 34.2009 149.909C34.2633 126.839 52.9818 108.156 76.0662 108.156C99.1898 108.156 117.935 126.901 117.935 150.024C117.935 154.455 117.241 158.722 115.966 162.73C148.5 160 145.677 159.862 154.5 159C168.947 157.587 181 147.5 195.5 139.713Z" fill="white"/>
</svg>
