<svg width="141" height="30" viewBox="0 0 141 30" fill="none" xmlns="http://www.w3.org/2000/svg">
<path d="M139.106 23.1821L96.9805 23.3911C98.0993 24.6172 102.608 25.0028 104.99 25.2356C106.394 25.3729 128.792 26.368 139.06 26.9283C139.589 26.9571 140.032 26.5364 140.032 26.0072V24.1044C140.032 23.5932 139.617 23.1796 139.106 23.1821Z" fill="white"/>
<path d="M44.8288 15.1209C44.684 14.9764 44.5125 14.9041 44.3139 14.9041H42.6608V1.00145C42.6608 0.802896 42.5884 0.63129 42.444 0.486537C42.2991 0.342176 42.1276 0.26975 41.929 0.26975H38.3788C38.1799 0.26975 38.0084 0.342176 37.864 0.486537C37.7191 0.63129 37.6472 0.802896 37.6472 1.00145V14.9041H32.1728V1.00145C32.1728 0.802896 32.1004 0.63129 31.9559 0.486537C31.8112 0.342176 31.6397 0.26975 31.4411 0.26975H27.8909C27.6919 0.26975 27.5204 0.342176 27.376 0.486537C27.2311 0.63129 27.1592 0.802896 27.1592 1.00145V18.5084C27.1592 18.7075 27.2311 18.879 27.376 19.0232C27.5204 19.1681 27.6919 19.2401 27.8909 19.2401H40.574V20.3855C40.574 20.5839 40.646 20.7556 40.7908 20.9004C40.9352 21.0448 41.1067 21.1172 41.3057 21.1172H44.3139C44.5125 21.1172 44.684 21.0448 44.8288 20.9004C44.9733 20.7556 45.0456 20.5839 45.0456 20.3855V15.6357C45.0456 15.4372 44.9733 15.2657 44.8288 15.1209Z" fill="white"/>
<path d="M48.785 19.2422C48.586 19.2422 48.4145 19.1702 48.2701 19.0253C48.1256 18.8809 48.0537 18.7094 48.0537 18.5105V1.00344C48.0537 0.804977 48.1256 0.63337 48.2701 0.488617C48.4145 0.344257 48.586 0.271832 48.785 0.271832H52.3357C52.5342 0.271832 52.7057 0.344257 52.8506 0.488617C52.9949 0.63337 53.0674 0.804977 53.0674 1.00344V10.1635L59.2734 0.895141C59.3276 0.804977 59.4496 0.678354 59.6392 0.515667C59.829 0.353077 60.0771 0.271832 60.3845 0.271832H63.2031C63.4016 0.271832 63.5731 0.344257 63.718 0.488617C63.8623 0.63337 63.9348 0.804977 63.9348 1.00344V18.5105C63.9348 18.7094 63.8623 18.8809 63.718 19.0253C63.5731 19.1702 63.4016 19.2422 63.2031 19.2422H59.6528C59.4538 19.2422 59.2824 19.1702 59.1379 19.0253C58.993 18.8809 58.9211 18.7094 58.9211 18.5105V9.35049L52.715 18.6189C52.6608 18.7094 52.5389 18.8357 52.3492 18.9983C52.1594 19.1609 51.9109 19.2422 51.6039 19.2422H48.785Z" fill="white"/>
<path d="M73.0146 8.75432H76.3481C77.1068 8.75432 77.7344 8.58742 78.2314 8.25293C78.7282 7.91883 78.9768 7.37207 78.9768 6.61332C78.9768 5.85456 78.7282 5.30829 78.2314 4.9737C77.7344 4.6396 77.1068 4.4724 76.3481 4.4724H73.0146V8.75432ZM76.4835 0.271829C77.6395 0.271829 78.6786 0.403058 79.6001 0.66473C80.5215 0.926892 81.3074 1.3245 81.9579 1.85725C82.6083 2.3903 83.1097 3.05428 83.462 3.8491C83.8142 4.6443 83.9903 5.56574 83.9903 6.61332C83.9903 7.67961 83.8142 8.60987 83.462 9.40468C83.1097 10.1999 82.6083 10.8593 81.9579 11.383C81.3074 11.9072 80.5215 12.3044 79.6001 12.5754C78.6786 12.8465 77.6395 12.9819 76.4835 12.9819H73.0146V18.5105C73.0146 18.7095 72.9422 18.881 72.7978 19.0253C72.6531 19.1702 72.4816 19.2422 72.2829 19.2422H68.7327C68.5336 19.2422 68.3622 19.1702 68.2179 19.0253C68.073 18.881 68.001 18.7095 68.001 18.5105V1.00353C68.001 0.804975 68.073 0.633369 68.2179 0.488616C68.3622 0.344255 68.5336 0.271829 68.7327 0.271829H76.4835Z" fill="white"/>
<path d="M115.534 12.032C115.552 11.7068 115.57 11.3456 115.589 10.948C115.606 10.5508 115.616 10.1442 115.616 9.72851C115.616 9.31307 115.606 8.91125 115.589 8.52246C115.57 8.13427 115.552 7.78655 115.534 7.47911C115.498 7.0278 115.403 6.61196 115.25 6.23249C115.096 5.85311 114.879 5.52362 114.599 5.24333C114.319 4.96343 113.971 4.74203 113.556 4.57945C113.14 4.41676 112.653 4.33551 112.093 4.33551C111.532 4.33551 111.045 4.41676 110.629 4.57945C110.213 4.74203 109.866 4.96343 109.586 5.24333C109.305 5.52362 109.089 5.85311 108.935 6.23249C108.782 6.61196 108.687 7.0278 108.651 7.47911C108.614 7.78655 108.592 8.13427 108.583 8.52246C108.574 8.91125 108.57 9.31307 108.57 9.72851C108.57 10.1442 108.574 10.5508 108.583 10.948C108.592 11.3456 108.614 11.7068 108.651 12.032C108.723 12.9357 109.035 13.6852 109.586 14.2814C110.137 14.8777 110.972 15.1757 112.093 15.1757C113.213 15.1757 114.044 14.8777 114.586 14.2814C115.128 13.6852 115.444 12.9357 115.534 12.032ZM103.637 7.34366C103.691 6.33196 103.912 5.37887 104.301 4.48448C104.689 3.59019 105.24 2.8136 105.954 2.15393C106.668 1.49456 107.535 0.970721 108.556 0.582035C109.577 0.193839 110.755 -0.000603316 112.093 -0.000603316C113.411 -0.000603316 114.586 0.193839 115.616 0.582035C116.646 0.970721 117.517 1.49456 118.231 2.15393C118.944 2.8136 119.495 3.59019 119.884 4.48448C120.272 5.37887 120.494 6.33196 120.548 7.34366C120.584 8.12065 120.602 8.93369 120.602 9.78271C120.602 10.6321 120.584 11.4269 120.548 12.1675C120.494 13.1795 120.272 14.1323 119.884 15.0266C119.495 15.921 118.944 16.7026 118.231 17.3709C117.517 18.0395 116.646 18.5633 115.616 18.9427C114.586 19.3221 113.411 19.5117 112.093 19.5117C110.755 19.5117 109.577 19.3221 108.556 18.9427C107.535 18.5633 106.668 18.0395 105.954 17.3709C105.24 16.7026 104.689 15.921 104.301 15.0266C103.912 14.1323 103.691 13.1795 103.637 12.1675C103.601 11.4269 103.583 10.6321 103.583 9.78271C103.583 8.93369 103.601 8.12065 103.637 7.34366Z" fill="white"/>
<path d="M139.301 0.271832C139.5 0.271832 139.671 0.344258 139.816 0.488619C139.96 0.633372 140.033 0.804977 140.033 1.00353V18.5106C140.033 18.7095 139.96 18.881 139.816 19.0254C139.671 19.1702 139.5 19.2422 139.301 19.2422H135.751C135.552 19.2422 135.38 19.1702 135.236 19.0254C135.091 18.881 135.019 18.7095 135.019 18.5106V11.8709H129.003V18.5106C129.003 18.7095 128.93 18.881 128.786 19.0254C128.641 19.1702 128.47 19.2422 128.271 19.2422H124.721C124.522 19.2422 124.35 19.1745 124.206 19.0389C124.061 18.9034 123.989 18.7273 123.989 18.5106V1.00353C123.989 0.804977 124.061 0.633372 124.206 0.488619C124.35 0.344258 124.522 0.271832 124.721 0.271832H128.271C128.47 0.271832 128.641 0.344258 128.786 0.488619C128.93 0.633372 129.003 0.804977 129.003 1.00353V7.53476H135.019V1.00353C135.019 0.804977 135.091 0.633372 135.236 0.488619C135.38 0.344258 135.552 0.271832 135.751 0.271832H139.301Z" fill="white"/>
<path d="M102.933 18.3478L95.7785 9.35049L102.472 1.16612C102.527 1.09409 102.554 0.994614 102.554 0.867992C102.554 0.705402 102.495 0.565745 102.378 0.447943C102.26 0.330632 102.12 0.271829 101.957 0.271829H97.7297C97.3863 0.271829 97.1425 0.344255 96.998 0.488616C96.8532 0.633369 96.7359 0.759599 96.6458 0.867992C96.6458 0.867992 94.2983 3.65338 93.6237 4.66077C93.5757 4.73251 93.5505 4.81434 93.5307 4.8899L93.5043 7.18703C94.0316 7.47879 94.3889 8.04026 94.3889 8.68553C94.3889 9.3448 94.0157 9.91607 93.4695 10.2021C93.4695 10.2021 93.4638 10.5625 93.4494 10.6558C93.3991 10.9839 93.129 11.2774 92.937 11.4888C92.2914 12.1997 91.5061 13.0045 91.7068 14.0761C91.8695 14.9449 92.6928 15.416 93.4687 15.0592C94.3516 14.653 94.271 13.76 94.3354 12.9509C94.3705 12.5109 94.5628 12.148 94.9253 11.8893C95.0795 11.7791 95.2466 11.6832 95.4639 11.6768C95.257 12.0612 95.2997 13.0724 95.35 13.7055C95.3752 14.0226 95.4047 14.3422 95.3919 14.6589C95.3633 15.3624 95.1562 15.9995 94.6066 16.482C93.6143 17.3531 91.9419 17.4662 90.8598 16.7157C89.4427 15.7326 89.1878 13.5297 90.3377 12.2322C90.6769 11.8495 91.0474 11.4936 91.4165 11.1387C91.5935 10.9686 91.7811 10.8245 91.8627 10.587C91.8805 10.5356 91.8796 10.4123 91.8855 10.3584C91.8897 10.3197 91.8855 10.2027 91.8855 10.2027C91.3387 9.91685 90.965 9.34529 90.965 8.68553C90.965 8.02576 91.3387 7.4542 91.8855 7.16832V6.84216L91.8761 6.85411V1.00343C91.8761 0.804974 91.8035 0.633369 91.6592 0.488616C91.5144 0.344255 91.3429 0.271829 91.1443 0.271829H87.594C87.3951 0.271829 87.2236 0.344255 87.0792 0.488616C86.9343 0.633369 86.8623 0.804974 86.8623 1.00343V18.5105C86.8623 18.7094 86.9343 18.8809 87.0792 19.0253C87.2236 19.1702 87.3951 19.2422 87.594 19.2422H91.1443C91.3429 19.2422 91.5144 19.1702 91.6592 19.0253C91.8035 18.8809 91.8761 18.7094 91.8761 18.5105L96.998 18.6189C97.1607 18.8179 97.3233 18.9711 97.4859 19.0796C97.6485 19.188 97.8559 19.2422 98.1091 19.2422H102.418C102.581 19.2422 102.721 19.1837 102.838 19.066C102.956 18.9488 103.014 18.8085 103.014 18.6459C103.014 18.5198 102.987 18.4202 102.933 18.3478Z" fill="white"/>
<path d="M17.646 24.8934C17.646 27.7137 15.3597 30 12.5394 30C9.71898 30 7.43262 27.7137 7.43262 24.8934C7.43262 22.0731 9.71898 19.7867 12.5394 19.7867C15.3597 19.7867 17.646 22.0731 17.646 24.8934Z" fill="white"/>
<path d="M62.248 23.3928L22.1849 23.1941C22.1847 18.2207 22.184 3.86713 22.184 0.980898C22.184 0.492933 21.9979 0.285164 21.4631 0.285164C17.4052 0.285164 13.2919 0.285068 9.20308 0.296535C6.99297 0.302807 3.50957 1.41526 2.02175 3.30508C2.05547 3.30508 15.2036 3.30626 15.2365 3.30645C15.1283 3.46875 12.031 8.05948 11.4361 8.94799C11.3664 9.05217 10.9149 9.29777 10.6569 9.29865C10.2875 9.29992 1.57269 9.29394 0.870974 9.30365C0.453472 9.30943 -0.0020567 9.6889 0.000197415 10.0642C0.00117747 10.2315 0.00167032 11.0677 0.00186633 12.2516H6.26253H6.97572C6.97572 12.2516 6.10837 13.93 3.52172 13.9707L0.00205774 13.9724C0.00195974 14.7335 0.00186264 15.5532 0.00176464 16.3838H5.38137C5.38137 16.3838 4.51402 18.0621 1.92737 18.1029L0.00147153 18.1039C0.00127552 18.9508 0.00108133 19.7723 0.000885317 20.516H3.54877C3.54877 20.516 2.68143 22.1943 0.0947751 22.2351L0.000394813 22.2352C0.000198802 23.1753 1.64183e-08 23.7757 1.64183e-08 23.7916C-9.79888e-05 24.5507 0.438574 24.8749 1.19723 24.8724C1.5279 24.8712 3.27788 24.8725 5.63755 24.8748C5.64784 21.072 8.73334 17.9923 12.5385 17.9923C16.3501 17.9923 19.44 21.0822 19.44 24.8937C19.44 25.6242 19.3256 26.3275 19.1154 26.9883C28.8086 26.4419 52.7845 25.3794 54.2389 25.2373C56.6202 25.0045 61.1293 24.619 62.248 23.3928Z" fill="white"/>
</svg>
