<svg width="280" height="80" viewBox="0 0 280 80" fill="none" xmlns="http://www.w3.org/2000/svg">
<path d="M0 0V80H80.3639V0H0ZM25.1242 13.1685C25.1242 13.1685 25.357 8.69226 29.7275 8.69226C34.0981 8.69226 34.2921 13.1685 34.2921 13.1685V44.3852C34.2921 44.3852 34.3438 47.2219 37.4471 47.2219C40.5505 47.2219 40.3694 44.3852 40.3694 44.3852V13.1685C40.3694 13.1685 40.7832 8.69226 45.0503 8.69226C49.3045 8.69226 49.6536 13.1685 49.6536 13.1685V44.3852C49.6536 44.3852 49.4985 55.8621 37.4471 56.4737C25.357 56.1223 25.0984 44.3852 25.0984 44.3852L25.1242 13.1685ZM18.9692 68.5231C18.9692 68.5231 9.69798 68.5231 9.69798 59.3754C9.69798 50.2277 9.69798 13.1685 9.69798 13.1685C9.69798 13.1685 9.69798 8.69226 14.3401 8.69226C18.9822 8.69226 18.9434 13.1685 18.9434 13.1685V56.4737C18.9434 56.4737 18.6072 59.3754 22.1373 59.3754C25.6673 59.3754 63.4636 59.3754 63.4636 59.3754L53.507 34.8861C53.507 34.8861 51.9165 30.6441 53.507 27.7293C55.1104 24.8146 61.8731 13.1555 61.8731 13.1555C61.8731 13.1555 63.7351 8.67924 67.2264 8.67924C70.7177 8.67924 72.7348 12.4658 71.2995 15.1074C69.8513 17.7489 63.3213 29.0306 63.3213 29.0306C63.3213 29.0306 61.6533 31.3598 63.3213 34.5348C66.0626 41.1191 77.1571 68.5101 77.1571 68.5101H18.9692V68.5231Z" fill="#ED1C24"/>
<path d="M91.7305 43.6818V6.96094H101.674V35.0937H114.036V43.6688H91.7305V43.6818Z" fill="white"/>
<path d="M118.664 6.97461H128.582V24.8146C128.582 27.5341 128.647 29.447 128.776 30.527C128.905 31.607 129.138 32.5829 129.487 33.4287C129.823 34.2745 130.483 34.9512 131.44 35.4587C132.397 35.9661 133.56 36.2134 134.905 36.2134C135.565 36.2134 136.198 36.1613 136.78 36.0442C137.362 35.9271 137.879 35.7449 138.345 35.4977C139.302 34.9902 139.974 34.2745 140.362 33.3377C140.659 32.5829 140.879 31.607 141.021 30.4229C141.164 29.2257 141.228 27.365 141.228 24.8276V22.3162V6.98761H151.12V26.389C151.12 28.3929 151.056 30.1366 150.952 31.607C150.836 33.0904 150.655 34.3136 150.409 35.3025C149.931 37.2414 149.116 38.8679 147.965 40.1952C146.737 41.6656 145.03 42.7716 142.832 43.5263C140.633 44.2811 137.996 44.6584 134.905 44.6584C131.75 44.6584 129.099 44.2941 126.953 43.5393C124.806 42.7976 123.1 41.6786 121.819 40.1952C120.72 38.8809 119.919 37.2414 119.414 35.3025C118.91 33.3637 118.651 30.3969 118.651 26.376V22.5634V6.97461H118.664Z" fill="white"/>
<path d="M158.698 43.6818V6.96094H168.538V23.6428L180.073 6.96094H191.658L178.185 24.8659L192.835 43.6688H180.422L168.538 27.1952V43.6688H158.698V43.6818Z" fill="white"/>
<path d="M233.152 25.3872C233.152 28.0287 232.674 30.5011 231.717 32.8042C230.76 35.1074 229.364 37.1634 227.515 38.9721C225.666 40.7808 223.532 42.1731 221.101 43.1621C218.67 44.151 216.187 44.6455 213.666 44.6455C211.054 44.6455 208.558 44.151 206.166 43.1751C203.774 42.1992 201.666 40.8068 199.83 38.9981C198.007 37.1894 196.597 35.1204 195.615 32.7782C194.632 30.436 194.141 27.9767 194.141 25.3872C194.141 22.7587 194.619 20.2994 195.589 18.0092C196.546 15.706 197.981 13.637 199.869 11.7763C201.64 9.99357 203.735 8.60125 206.153 7.61231C208.558 6.62338 211.067 6.12891 213.653 6.12891C216.278 6.12891 218.786 6.61036 221.166 7.58628C223.545 8.5492 225.653 9.94153 227.476 11.7633C229.299 13.572 230.708 15.6409 231.678 17.9702C232.674 20.2994 233.152 22.7717 233.152 25.3872ZM213.666 36.1614C216.407 36.1614 218.683 35.1335 220.493 33.0905C222.304 31.0476 223.209 28.4711 223.209 25.3872C223.209 23.8517 222.989 22.4464 222.536 21.1842C222.084 19.922 221.398 18.7509 220.467 17.6969C218.644 15.6409 216.368 14.613 213.666 14.613C210.938 14.613 208.675 15.6409 206.851 17.6839C205.028 19.7268 204.123 22.3033 204.123 25.3872C204.123 28.5492 205.015 31.1256 206.787 33.1426C208.571 35.1595 210.86 36.1614 213.666 36.1614Z" fill="white"/>
<path d="M239.631 43.6818V6.96094H249.665V43.6818H239.631Z" fill="white"/>
<path d="M257.695 43.6818V6.96094H267.639V35.0937H280.001V43.6688H257.695V43.6818Z" fill="white"/>
<path d="M112.587 63.3214C112.587 64.7268 112.328 66.041 111.811 67.2772C111.294 68.5004 110.544 69.5934 109.548 70.5563C108.553 71.5192 107.428 72.2609 106.147 72.7944C104.88 73.3279 103.561 73.5882 102.178 73.5882C100.781 73.5882 99.4494 73.328 98.1692 72.8075C96.902 72.287 95.7771 71.5453 94.8073 70.5823C93.8375 69.6194 93.0875 68.5264 92.5573 67.2772C92.0401 66.028 91.7686 64.7008 91.7686 63.3214C91.7686 61.9291 92.0272 60.6149 92.5444 59.3657C93.0616 58.1165 93.8116 57.0104 94.7943 56.0475C95.7771 55.0846 96.902 54.3429 98.1563 53.8224C99.4106 53.3149 100.755 53.0547 102.165 53.0547C103.548 53.0547 104.867 53.3019 106.122 53.8224C107.376 54.3299 108.501 55.0716 109.496 56.0475C110.492 57.0235 111.242 58.1295 111.772 59.3787C112.328 60.6149 112.587 61.9291 112.587 63.3214ZM109.29 63.3214C109.29 62.3065 109.109 61.3696 108.759 60.4848C108.41 59.5999 107.893 58.8192 107.234 58.1295C106.574 57.4398 105.811 56.9064 104.945 56.542C104.079 56.1647 103.173 55.9825 102.204 55.9825C101.247 55.9825 100.329 56.1646 99.4752 56.529C98.6218 56.8933 97.846 57.4268 97.1736 58.1295C96.527 58.8061 96.0098 59.5869 95.6348 60.4978C95.4538 60.9532 95.3245 61.4086 95.234 61.8641C95.1435 62.3195 95.1047 62.814 95.1047 63.3344C95.1047 64.3364 95.2857 65.2733 95.6348 66.1451C95.8159 66.6006 96.0227 67.017 96.2684 67.3943C96.5141 67.7847 96.8115 68.149 97.1736 68.5004C97.833 69.19 98.583 69.7105 99.4623 70.0879C100.329 70.4522 101.247 70.6474 102.217 70.6474C103.173 70.6474 104.079 70.4652 104.932 70.1009C105.785 69.7365 106.548 69.203 107.208 68.5264C107.867 67.8367 108.384 67.043 108.759 66.1581C109.109 65.2343 109.29 64.2974 109.29 63.3214Z" fill="white"/>
<path d="M116.272 73.055V53.4844H119.428V73.055H116.272Z" fill="white"/>
<path d="M123.979 73.055V53.4844H127.134V70.2053H134.207V73.055H123.979Z" fill="white"/>
<path d="M160.598 58.2446C159.706 57.4769 158.762 56.9044 157.753 56.514C157.249 56.3318 156.745 56.1887 156.227 56.0846C155.71 55.9805 155.167 55.9415 154.611 55.9415C152.49 55.9415 150.758 56.6311 149.426 57.9974C148.094 59.3637 147.422 61.1464 147.422 63.3455C147.422 65.4665 148.068 67.2102 149.374 68.5895C150.68 69.9558 152.309 70.6454 154.275 70.6454C154.857 70.6454 155.413 70.5934 155.943 70.5023C156.473 70.3982 157.016 70.242 157.559 70.0338C158.594 69.6305 159.589 69.0059 160.559 68.1601V71.7645C159.706 72.3761 158.788 72.8445 157.779 73.1438C157.288 73.2869 156.77 73.404 156.214 73.4821C155.658 73.5602 155.102 73.5992 154.52 73.5992C153.033 73.5992 151.663 73.352 150.409 72.8705C149.154 72.3891 148.055 71.6604 147.085 70.7105C146.129 69.7606 145.391 68.6545 144.874 67.3793C144.37 66.1041 144.111 64.7508 144.111 63.3195C144.111 61.9011 144.37 60.5478 144.874 59.2726C145.379 57.9974 146.116 56.8784 147.085 55.9284C148.042 54.9785 149.154 54.2499 150.409 53.7554C151.663 53.2609 153.021 53.0137 154.469 53.0137C155.051 53.0137 155.607 53.0527 156.137 53.1308C156.667 53.2089 157.197 53.339 157.727 53.5212C158.775 53.8465 159.77 54.3409 160.74 55.0306L160.598 58.2446Z" fill="white"/>
<path d="M184.456 63.3214C184.456 64.7268 184.197 66.041 183.693 67.2772C183.175 68.5004 182.425 69.5934 181.43 70.5563C180.434 71.5192 179.309 72.2609 178.042 72.7944C176.775 73.3279 175.443 73.5882 174.072 73.5882C172.676 73.5882 171.331 73.328 170.064 72.8075C168.797 72.287 167.672 71.5453 166.702 70.5823C165.732 69.6194 164.982 68.5264 164.452 67.2772C163.935 66.028 163.663 64.7008 163.663 63.3214C163.663 61.9291 163.922 60.6149 164.426 59.3657C164.943 58.1165 165.693 57.0104 166.676 56.0475C167.659 55.0846 168.784 54.3429 170.038 53.8224C171.292 53.3149 172.637 53.0547 174.046 53.0547C175.43 53.0547 176.749 53.3019 178.003 53.8224C179.257 54.3299 180.369 55.0716 181.365 56.0475C182.361 57.0235 183.124 58.1295 183.654 59.3787C184.197 60.6149 184.456 61.9291 184.456 63.3214ZM181.158 63.3214C181.158 62.3065 180.977 61.3696 180.628 60.4848C180.266 59.5999 179.762 58.8192 179.102 58.1295C178.443 57.4398 177.667 56.9064 176.814 56.542C175.947 56.1647 175.042 55.9825 174.072 55.9825C173.102 55.9825 172.197 56.1646 171.344 56.529C170.49 56.8933 169.715 57.4268 169.042 58.1295C168.396 58.8061 167.878 59.5869 167.503 60.4978C167.335 60.9532 167.193 61.4086 167.103 61.8641C167.012 62.3195 166.973 62.814 166.973 63.3344C166.973 64.3364 167.141 65.2733 167.503 66.1451C167.685 66.6006 167.891 67.017 168.137 67.3943C168.383 67.7847 168.693 68.149 169.042 68.5004C169.702 69.19 170.465 69.7105 171.331 70.0879C172.197 70.4522 173.115 70.6474 174.085 70.6474C175.042 70.6474 175.947 70.4652 176.801 70.1009C177.654 69.7365 178.417 69.203 179.076 68.5264C179.736 67.8367 180.253 67.043 180.628 66.1581C180.977 65.2343 181.158 64.2974 181.158 63.3214Z" fill="white"/>
<path d="M203.942 63.3849L203.774 62.1357L203.593 60.7174C203.502 61.1988 203.399 61.6673 203.256 62.1097C203.114 62.5521 202.933 62.9945 202.713 63.424L197.619 73.8599L192.524 63.2028C192.304 62.7473 192.123 62.3309 191.968 61.9275L191.567 60.7044C191.567 61.0297 191.554 61.2509 191.554 61.394C191.541 61.5372 191.502 61.7324 191.464 62.0056C191.412 62.4871 191.321 62.9555 191.205 63.411L189.11 73.0531H186.214L190.804 52.6497L196.545 65.0115L196.933 65.9874L197.606 67.666C197.787 67.1195 198.071 66.4038 198.485 65.5189L198.718 64.9854L204.33 52.6367L209.036 73.0401H206.101L203.942 63.3849Z" fill="white"/>
<path d="M214.52 64.2716V73.055H211.559V53.4844H216.343C217.739 53.4844 218.774 53.5624 219.446 53.7186C220.119 53.8747 220.713 54.122 221.218 54.4863C221.826 54.9418 222.304 55.5533 222.653 56.3211C222.989 57.0888 223.17 57.9476 223.17 58.8715C223.17 59.7824 223.002 60.6412 222.653 61.4219C222.304 62.2027 221.826 62.8272 221.218 63.2827C220.726 63.634 220.145 63.8813 219.459 64.0374C218.774 64.1935 217.739 64.2716 216.343 64.2716H215.722H214.52ZM214.727 61.6691H215.541C217.3 61.6691 218.476 61.487 219.058 61.0966C219.64 60.7193 219.925 60.0426 219.925 59.0537C219.925 57.9997 219.614 57.271 218.994 56.8416C218.373 56.4122 217.222 56.204 215.541 56.204H214.727V61.6691Z" fill="white"/>
<path d="M238.893 73.0532L236.682 68.0174H228.976L226.713 73.0662H223.39L232.816 52.7148L242.217 73.0662L238.893 73.0532ZM230.152 65.3759H235.57L233.579 60.9126L233.217 59.9367L232.842 58.6875C232.777 58.9347 232.726 59.156 232.674 59.3251C232.622 59.5073 232.57 59.6895 232.493 59.8846C232.389 60.236 232.273 60.5743 232.131 60.8996L230.152 65.3759Z" fill="white"/>
<path d="M244.065 73.0525V52.7012L256.414 64.6726L257.449 65.7526C257.785 66.1169 258.147 66.5463 258.535 67.0538V53.4819H261.457V73.8202L248.85 61.6277C248.669 61.4455 248.501 61.2893 248.358 61.1332C248.307 61.0681 248.139 60.886 247.867 60.5867C247.544 60.2093 247.246 59.832 246.975 59.4416V73.0525H244.065Z" fill="white"/>
<path d="M270.109 73.055V64.1025L263.553 53.4844H266.876L270.962 60.1337L271.324 60.7973L271.777 61.6952C271.802 61.6431 271.854 61.526 271.919 61.3569C271.984 61.1877 272.061 61.0055 272.165 60.8103C272.307 60.5371 272.436 60.2898 272.604 60.0426L276.794 53.4844H279.962L273.264 64.0764V73.055H270.109Z" fill="white"/>
</svg>
