<svg width="18" height="20" viewBox="0 0 18 20" fill="none" xmlns="http://www.w3.org/2000/svg">
<path d="M3.62 9.19039C5.06 12.0204 7.38 14.3404 10.21 15.7804L12.41 13.5804C12.69 13.3004 13.08 13.2204 13.43 13.3304C14.55 13.7004 15.75 13.9004 17 13.9004C17.2652 13.9004 17.5196 14.0058 17.7071 14.1933C17.8946 14.3809 18 14.6352 18 14.9004V18.4004C18 18.6656 17.8946 18.92 17.7071 19.1075C17.5196 19.2951 17.2652 19.4004 17 19.4004C12.4913 19.4004 8.1673 17.6094 4.97919 14.4212C1.79107 11.2331 0 6.90907 0 2.40039C0 2.13518 0.105357 1.88082 0.292893 1.69329C0.48043 1.50575 0.734784 1.40039 1 1.40039H4.5C4.76522 1.40039 5.01957 1.50575 5.20711 1.69329C5.39464 1.88082 5.5 2.13518 5.5 2.40039C5.5 3.65039 5.7 4.85039 6.07 5.97039C6.18 6.32039 6.1 6.71039 5.82 6.99039L3.62 9.19039Z" fill="white"/>
</svg>
