<svg width="410" height="374" viewBox="0 0 410 374" fill="none" xmlns="http://www.w3.org/2000/svg">
<g clip-path="url(#clip0_10_1264)">
<path d="M429.591 405.378L367.368 255.16C365.783 251.334 361.396 249.515 357.569 251.101C353.742 252.687 351.924 257.074 353.51 260.9L409.761 396.701L358.452 381.834C355.084 380.857 351.487 382.347 349.796 385.42L324.027 432.213L263.67 286.497C333.333 273.063 386.117 211.644 386.117 138.119C386.118 54.792 318.327 -13 235 -13C151.673 -13 83.8808 54.792 83.8808 138.119C83.8808 171.87 95.0048 203.07 113.777 228.252L40.4088 405.378C39.3058 408.042 39.8268 411.102 41.7498 413.25C43.6718 415.398 46.6568 416.254 49.4258 415.452L109.959 397.911L140.359 453.118C141.683 455.521 144.206 457 146.927 457C147.065 457 147.204 456.996 147.343 456.989C150.222 456.829 152.754 455.034 153.858 452.37L211.994 312.017C213.579 308.19 211.762 303.803 207.935 302.218C204.108 300.633 199.721 302.45 198.136 306.277L145.971 432.213L120.204 385.42C118.512 382.347 114.913 380.857 111.547 381.834L60.2388 396.701L124.636 241.232C152.234 270.752 191.496 289.237 235 289.237C239.491 289.237 243.933 289.028 248.325 288.643L316.143 452.37C317.246 455.034 319.779 456.829 322.657 456.988C322.797 456.996 322.935 457 323.074 457C325.795 457 328.318 455.521 329.641 453.118L360.042 397.911L420.575 415.452C423.346 416.255 426.328 415.398 428.251 413.25C430.174 411.102 430.694 408.042 429.591 405.378ZM98.8808 138.119C98.8808 63.063 159.944 2 235 2C310.056 2 371.118 63.063 371.118 138.119C371.118 213.175 310.056 274.237 235 274.237C159.944 274.237 98.8808 213.175 98.8808 138.119Z" fill="#DCDCDC"/>
<path d="M321.659 109.961C320.796 107.303 318.524 105.345 315.767 104.882L265.3 96.413L241.651 51.034C240.359 48.555 237.796 47 235 47C232.205 47 229.641 48.555 228.349 51.034L204.699 96.413L154.233 104.882C151.476 105.344 149.205 107.302 148.341 109.961C147.477 112.62 148.163 115.538 150.122 117.533L185.972 154.048L178.432 204.662C178.02 207.427 179.18 210.191 181.442 211.835C183.702 213.477 186.691 213.726 189.193 212.481L235 189.669L280.806 212.481C281.865 213.008 283.009 213.268 284.149 213.268C285.706 213.268 287.253 212.784 288.558 211.836C290.82 210.192 291.98 207.428 291.568 204.663L284.029 154.049L319.879 117.533C321.837 115.538 322.523 112.62 321.659 109.961ZM270.708 146.205C269.06 147.884 268.295 150.238 268.642 152.564L274.612 192.638L238.344 174.577C237.29 174.053 236.146 173.79 235 173.79C233.855 173.79 232.709 174.052 231.657 174.577L195.389 192.638L201.359 152.564C201.706 150.238 200.941 147.883 199.293 146.205L170.908 117.293L210.865 110.587C213.185 110.198 215.188 108.743 216.275 106.657L235 70.728L253.725 106.658C254.813 108.744 256.815 110.199 259.135 110.588L299.093 117.294L270.708 146.205Z" fill="#DCDCDC"/>
<path d="M348.612 145.684C344.505 145.135 340.735 148.027 340.192 152.134C333.235 204.641 288.012 244.238 235 244.238C176.486 244.238 128.881 196.634 128.881 138.119C128.881 79.604 176.486 32 235 32C288.013 32 333.235 71.596 340.192 124.104C340.735 128.211 344.512 131.105 348.612 130.554C352.717 130.01 355.606 126.24 355.061 122.134C347.121 62.198 295.506 17 235 17C168.215 17 113.881 71.333 113.881 138.119C113.881 204.905 168.215 259.237 235 259.237C295.506 259.237 347.121 214.039 355.062 154.103C355.606 149.998 352.718 146.228 348.612 145.684Z" fill="#DCDCDC"/>
</g>
<defs>
<clipPath id="clip0_10_1264">
<rect width="470" height="470" fill="white" transform="translate(0 -13)"/>
</clipPath>
</defs>
</svg>
