<svg width="452" height="72" viewBox="0 0 452 72" fill="none" xmlns="http://www.w3.org/2000/svg">
<path d="M185.685 26.4003C185.685 26.5343 185.551 26.6403 185.392 26.6403H182.302C182.142 26.6403 182.009 26.5343 182.009 26.4003V8.31227C182.009 8.17927 182.143 8.07227 182.302 8.07227H192.345C195.941 8.07227 198.659 9.80428 198.659 13.8803C198.659 17.9293 196.181 19.7143 192.159 19.7143H185.686V26.4003H185.685ZM185.685 10.9493V16.8633H192.185C193.863 16.8633 194.609 16.1973 194.609 13.8263C194.609 11.5623 193.917 10.9493 192.238 10.9493H185.685Z" fill="white"/>
<path d="M201.278 19.7927C201.278 14.2517 203.356 12.6797 208.977 12.6797C214.651 12.6797 216.703 14.2517 216.703 19.7927C216.703 25.3607 214.705 27.0117 208.977 27.0117C203.303 27.0117 201.278 25.3607 201.278 19.7927ZM205.088 19.8457C205.088 23.8157 205.514 24.1617 208.977 24.1617C212.467 24.1617 212.893 23.8167 212.893 19.8457C212.893 15.9567 212.467 15.5297 208.977 15.5297C205.514 15.5307 205.088 15.9567 205.088 19.8457Z" fill="white"/>
<path d="M232.039 23.5757C232.146 23.5487 232.332 23.6017 232.359 23.7357L232.732 26.2397C232.785 26.3997 232.732 26.5587 232.572 26.5857C231.027 26.8787 229.242 27.0117 227.591 27.0117C222.13 27.0117 220.425 25.3337 220.425 19.8197C220.425 14.3317 222.13 12.6797 227.591 12.6797C229.242 12.6797 231.027 12.8397 232.572 13.1057C232.732 13.1587 232.785 13.2917 232.732 13.4517L232.359 15.9557C232.332 16.0897 232.146 16.1417 232.039 16.1157C230.813 15.7957 229.162 15.6357 227.723 15.6357C224.766 15.6357 224.233 16.0357 224.233 19.8447C224.233 23.7617 224.899 24.0807 227.856 24.0807C229.295 24.0817 230.813 23.8957 232.039 23.5757Z" fill="white"/>
<path d="M247.276 23.5757C247.383 23.5487 247.569 23.6017 247.596 23.7357L247.969 26.2397C248.022 26.3997 247.969 26.5587 247.809 26.5857C246.264 26.8787 244.479 27.0117 242.828 27.0117C237.367 27.0117 235.662 25.3337 235.662 19.8197C235.662 14.3317 237.367 12.6797 242.828 12.6797C244.479 12.6797 246.264 12.8397 247.809 13.1057C247.969 13.1587 248.022 13.2917 247.969 13.4517L247.596 15.9557C247.569 16.0897 247.383 16.1417 247.276 16.1157C246.05 15.7957 244.399 15.6357 242.96 15.6357C240.003 15.6357 239.47 16.0357 239.47 19.8447C239.47 23.7617 240.136 24.0807 243.093 24.0807C244.532 24.0817 246.05 23.8957 247.276 23.5757Z" fill="white"/>
<path d="M251.604 13.3201C251.604 13.1861 251.711 13.0801 251.871 13.0801H254.748C254.908 13.0801 255.041 13.1861 255.041 13.3201V22.0311L261.248 13.3201C261.354 13.2141 261.515 13.0801 261.674 13.0801H265.031C265.191 13.0801 265.297 13.1861 265.297 13.3201V26.4001C265.297 26.5341 265.191 26.6401 265.031 26.6401H262.153C261.993 26.6401 261.86 26.5341 261.86 26.4001V17.3161L255.573 26.4271C255.493 26.5341 255.36 26.6401 255.2 26.6401H251.87C251.71 26.6401 251.603 26.5341 251.603 26.4001V13.3201H251.604Z" fill="white"/>
<path d="M270.007 13.3206C270.007 13.1866 270.114 13.0806 270.274 13.0806H273.151C273.311 13.0806 273.444 13.1866 273.444 13.3206V22.0316L279.651 13.3206C279.757 13.2146 279.918 13.0806 280.077 13.0806H283.434C283.594 13.0806 283.7 13.1866 283.7 13.3206V26.4006C283.7 26.5346 283.594 26.6406 283.434 26.6406H280.557C280.397 26.6406 280.264 26.5346 280.264 26.4006V17.3166L273.977 26.4276C273.897 26.5346 273.764 26.6406 273.604 26.6406H270.274C270.114 26.6406 270.007 26.5346 270.007 26.4006V13.3206ZM279.118 8.04665C279.118 7.91365 279.251 7.80664 279.411 7.80664H281.515C281.675 7.80664 281.835 7.91365 281.835 8.04665C281.835 10.7636 280.21 11.6696 276.826 11.6696C273.469 11.6696 271.845 10.7636 271.845 8.04665C271.845 7.91365 272.005 7.80664 272.164 7.80664H274.242C274.402 7.80664 274.562 7.91365 274.562 8.04665C274.562 9.53865 274.775 9.99164 276.853 9.99164C278.904 9.99064 279.118 9.53765 279.118 8.04665Z" fill="white"/>
<path d="M299.57 23.5757C299.677 23.5487 299.863 23.6017 299.89 23.7357L300.263 26.2397C300.316 26.3997 300.263 26.5587 300.103 26.5857C298.558 26.8787 296.773 27.0117 295.122 27.0117C289.661 27.0117 287.956 25.3337 287.956 19.8197C287.956 14.3317 289.661 12.6797 295.122 12.6797C296.773 12.6797 298.558 12.8397 300.103 13.1057C300.263 13.1587 300.316 13.2917 300.263 13.4517L299.89 15.9557C299.863 16.0897 299.677 16.1417 299.57 16.1157C298.344 15.7957 296.693 15.6357 295.255 15.6357C292.298 15.6357 291.765 16.0357 291.765 19.8447C291.765 23.7617 292.431 24.0807 295.388 24.0807C296.826 24.0817 298.345 23.8957 299.57 23.5757Z" fill="white"/>
<path d="M307.322 26.4003C307.322 26.5343 307.188 26.6403 307.029 26.6403H304.205C304.045 26.6403 303.912 26.5343 303.912 26.4003V13.3203C303.912 13.1863 304.045 13.0803 304.205 13.0803H307.029C307.189 13.0803 307.322 13.1863 307.322 13.3203V19.3943C312.383 17.5823 310.785 12.6543 317.151 12.6543C317.311 12.6543 317.444 12.7613 317.444 12.8673L318.03 15.2653C318.03 15.3723 317.897 15.5053 317.737 15.5053C314.301 15.5843 314.993 18.2223 311.663 19.5273C314.993 20.8603 314.78 24.0293 317.897 24.0823C318.03 24.0823 318.163 24.2153 318.163 24.3493L317.577 26.7733C317.577 26.9073 317.471 26.9863 317.311 26.9863C310.944 26.9863 312.516 21.8183 307.321 20.0073L307.322 26.4003Z" fill="white"/>
<path d="M321.769 13.3201C321.769 13.1861 321.876 13.0801 322.036 13.0801H324.913C325.073 13.0801 325.206 13.1861 325.206 13.3201V22.0311L331.413 13.3201C331.519 13.2141 331.68 13.0801 331.839 13.0801H335.196C335.356 13.0801 335.462 13.1861 335.462 13.3201V26.4001C335.462 26.5341 335.356 26.6401 335.196 26.6401H332.318C332.158 26.6401 332.025 26.5341 332.025 26.4001V17.3161L325.738 26.4271C325.658 26.5341 325.525 26.6401 325.365 26.6401H322.035C321.875 26.6401 321.768 26.5341 321.768 26.4001V13.3201H321.769Z" fill="white"/>
<path d="M353.959 20.2457C353.959 20.4577 353.692 20.5917 353.506 20.5917H343.436C343.516 24.0017 344.129 24.2677 347.752 24.2677C349.351 24.2677 351.268 24.0547 352.467 23.7347H352.52C352.626 23.7347 352.76 23.7877 352.787 23.8947L353.133 26.2117C353.16 26.2647 353.16 26.2917 353.16 26.3457C353.16 26.8247 348.977 27.0117 347.379 27.0117C341.625 27.0117 339.68 25.3337 339.68 19.8197C339.68 14.3857 341.732 12.6797 347.06 12.6797C352.28 12.6797 353.959 14.1717 353.959 20.2457ZM350.389 18.1677C350.309 15.6907 349.749 15.2907 346.952 15.2907C344.208 15.2907 343.595 15.6907 343.462 18.1677H350.389Z" fill="white"/>
<path d="M190.506 39.7203H193.357C193.517 39.7203 193.65 39.8263 193.65 39.9603V46.0603C198.711 44.2483 196.128 39.3203 202.494 39.3203C202.654 39.3203 202.787 39.4273 202.787 39.5333L203.373 41.9313C203.373 42.0373 203.239 42.1703 203.08 42.1703C199.644 42.2503 201.135 44.8883 197.806 46.1933C201.136 47.5253 200.123 50.6953 203.24 50.7483C203.374 50.7483 203.507 50.8813 203.507 51.0153L202.921 53.4393C202.921 53.5723 202.814 53.6523 202.654 53.6523C196.288 53.6523 198.845 48.4843 193.65 46.6733V53.0393C193.65 53.1733 193.517 53.2793 193.357 53.2793H190.506C190.346 53.2793 190.24 53.1733 190.24 53.0393V46.6733C185.045 48.4853 187.602 53.6523 181.235 53.6523C181.075 53.6523 180.942 53.5723 180.942 53.4393L180.383 51.0153C180.383 50.8813 180.516 50.7483 180.649 50.7483C183.766 50.6953 182.754 47.5243 186.084 46.1933C182.754 44.8883 184.246 42.2503 180.783 42.1703C180.649 42.1703 180.516 42.0373 180.516 41.9313L181.102 39.5333C181.102 39.4273 181.209 39.3203 181.369 39.3203C187.735 39.3203 185.178 44.2483 190.24 46.0603V39.9603C190.24 39.8263 190.346 39.7203 190.506 39.7203Z" fill="white"/>
<path d="M220.882 46.8863C220.882 47.0983 220.615 47.2323 220.429 47.2323H210.359C210.439 50.6423 211.052 50.9083 214.675 50.9083C216.273 50.9083 218.191 50.6953 219.39 50.3753H219.443C219.549 50.3753 219.683 50.4283 219.71 50.5353L220.056 52.8523C220.083 52.9053 220.083 52.9323 220.083 52.9863C220.083 53.4653 215.9 53.6523 214.302 53.6523C208.548 53.6523 206.603 51.9743 206.603 46.4603C206.603 41.0263 208.655 39.3203 213.983 39.3203C219.204 39.3203 220.882 40.8123 220.882 46.8863ZM217.313 44.8083C217.233 42.3313 216.673 41.9313 213.876 41.9313C211.132 41.9313 210.519 42.3313 210.386 44.8083H217.313Z" fill="white"/>
<path d="M226.606 39.9607C226.606 39.8267 226.713 39.7207 226.873 39.7207H238.301C238.461 39.7207 238.594 39.8267 238.594 39.9607V53.0407C238.594 53.1747 238.461 53.2807 238.301 53.2807H235.371C235.211 53.2807 235.078 53.1747 235.078 53.0407V42.4647H229.884C229.884 45.5817 229.112 49.7107 227.353 53.3867C227.3 53.5207 227.167 53.6267 227.006 53.5997L223.943 53.0407C223.783 53.0137 223.65 52.8547 223.703 52.7217C226.02 48.6187 226.58 45.2087 226.606 39.9607Z" fill="white"/>
<path d="M257.082 46.8863C257.082 47.0983 256.815 47.2323 256.629 47.2323H246.559C246.639 50.6423 247.252 50.9083 250.875 50.9083C252.473 50.9083 254.391 50.6953 255.59 50.3753H255.644C255.75 50.3753 255.884 50.4283 255.911 50.5353L256.257 52.8523C256.284 52.9053 256.284 52.9323 256.284 52.9863C256.284 53.4653 252.101 53.6523 250.503 53.6523C244.749 53.6523 242.804 51.9743 242.804 46.4603C242.804 41.0263 244.856 39.3203 250.184 39.3203C255.403 39.3203 257.082 40.8123 257.082 46.8863ZM253.512 44.8083C253.432 42.3313 252.872 41.9313 250.075 41.9313C247.331 41.9313 246.718 42.3313 246.585 44.8083H253.512Z" fill="white"/>
<path d="M268.923 49.2053C268.923 47.5003 268.416 47.3673 266.019 47.3673H263.196C263.01 47.3673 262.823 47.2613 262.823 47.1003V45.2363C262.823 45.0763 263.009 44.9433 263.196 44.9433H265.967C268.258 44.9433 268.631 44.8103 268.631 43.4253C268.631 42.3333 268.312 41.9863 265.647 41.9863C263.996 41.9863 262.131 42.1203 260.985 42.3863C260.692 42.4393 260.585 42.2793 260.559 42.0133L260.266 40.0143C260.266 39.9083 260.319 39.7213 260.479 39.6953C261.997 39.4553 263.622 39.3223 265.647 39.3223C270.869 39.3223 272.627 40.4943 272.627 42.9713C272.627 44.5433 271.881 45.6353 269.617 46.0623C272.041 46.4353 272.92 47.6603 272.92 49.4723C272.92 52.4283 270.762 53.6543 265.621 53.6543C263.597 53.6543 262.025 53.5213 260.453 53.2813C260.293 53.2543 260.24 53.0683 260.24 52.9613L260.533 50.9103C260.56 50.6443 260.667 50.4843 260.959 50.5373C262.104 50.8033 263.97 50.9633 265.728 50.9633C268.629 50.9633 268.923 50.4833 268.923 49.2053Z" fill="white"/>
<path d="M290.678 53.0407C290.678 53.1747 290.572 53.2807 290.412 53.2807H287.482C287.322 53.2807 287.189 53.1747 287.189 53.0407V47.5267H280.476V53.0407C280.476 53.1747 280.343 53.2807 280.183 53.2807H277.253C277.093 53.2807 276.986 53.1747 276.986 53.0407V39.9607C276.986 39.8267 277.093 39.7207 277.253 39.7207H280.183C280.343 39.7207 280.476 39.8267 280.476 39.9607V44.7297H287.189V39.9607C287.189 39.8267 287.322 39.7207 287.482 39.7207H290.412C290.572 39.7207 290.678 39.8267 290.678 39.9607V53.0407Z" fill="white"/>
<path d="M303.54 44.4347C307.269 44.4347 309.028 45.9268 309.028 48.8038C309.028 51.7338 307.243 53.2787 303.647 53.2787H295.735C295.549 53.2787 295.389 53.1727 295.389 53.0117V39.9587C295.389 39.8247 295.496 39.7188 295.656 39.7188H298.586C298.746 39.7188 298.879 39.8247 298.879 39.9587V44.4337H303.54V44.4347ZM303.62 50.6147C304.872 50.6147 305.272 50.3217 305.272 48.8837C305.272 47.4187 304.819 46.9928 303.567 46.9928H298.879V50.6157H303.62V50.6147ZM314.729 53.0397C314.729 53.1737 314.595 53.2797 314.436 53.2797H311.506C311.346 53.2797 311.213 53.1737 311.213 53.0397V39.9597C311.213 39.8257 311.347 39.7197 311.506 39.7197H314.436C314.596 39.7197 314.729 39.8257 314.729 39.9597V53.0397Z" fill="white"/>
<path d="M333.216 46.8863C333.216 47.0983 332.949 47.2323 332.763 47.2323H322.693C322.773 50.6423 323.386 50.9083 327.008 50.9083C328.607 50.9083 330.524 50.6953 331.723 50.3753H331.776C331.882 50.3753 332.016 50.4283 332.043 50.5353L332.389 52.8523C332.416 52.9053 332.416 52.9323 332.416 52.9863C332.416 53.4653 328.233 53.6523 326.635 53.6523C320.881 53.6523 318.936 51.9743 318.936 46.4603C318.936 41.0263 320.988 39.3203 326.316 39.3203C331.537 39.3203 333.216 40.8123 333.216 46.8863ZM329.646 44.8083C329.566 42.3313 329.006 41.9313 326.209 41.9313C323.465 41.9313 322.852 42.3313 322.719 44.8083H329.646Z" fill="white"/>
<path d="M346.481 50.4827C347.999 47.3397 348.373 44.1427 348.399 39.9607C348.399 39.8267 348.533 39.7207 348.692 39.7207H359.721C359.881 39.7207 360.014 39.8267 360.014 39.9607V50.4827H363.211C363.371 50.4827 363.478 50.5897 363.478 50.7227L362.679 56.8227C362.679 56.9557 362.572 57.0627 362.412 57.0627H360.094C359.934 57.0627 359.801 56.9557 359.801 56.8227V53.2797H346.802V56.8227C346.802 56.9557 346.668 57.0627 346.509 57.0627H344.218C344.058 57.0627 343.925 56.9557 343.925 56.8227L343.126 50.7227C343.126 50.5897 343.26 50.4827 343.419 50.4827H346.481ZM349.571 50.4827H356.551V42.3847H351.676C351.676 45.0217 351.01 47.9787 349.571 50.4827Z" fill="white"/>
<path d="M366.204 46.4333C366.204 40.8923 368.282 39.3203 373.903 39.3203C379.577 39.3203 381.629 40.8923 381.629 46.4333C381.629 52.0013 379.631 53.6523 373.903 53.6523C368.229 53.6523 366.204 52.0013 366.204 46.4333ZM370.014 46.4863C370.014 50.4563 370.44 50.8023 373.903 50.8023C377.393 50.8023 377.819 50.4573 377.819 46.4863C377.819 42.5973 377.393 42.1703 373.903 42.1703C370.441 42.1713 370.014 42.5973 370.014 46.4863Z" fill="white"/>
<path d="M385.848 39.9603C385.848 39.8263 385.955 39.7203 386.115 39.7203H389.045C389.205 39.7203 389.338 39.8263 389.338 39.9603V41.2123C390.191 40.2793 392.668 39.3203 394.56 39.3203C399.089 39.3203 400.793 40.9983 400.793 46.4863C400.793 51.9743 399.088 53.6523 394.56 53.6523C392.668 53.6523 390.191 52.6933 389.338 51.7613V58.1543C389.338 58.2883 389.205 58.3943 389.045 58.3943H386.115C385.955 58.3943 385.848 58.2883 385.848 58.1543V39.9603ZM389.338 50.0303C390.431 50.5093 392.135 50.7223 393.361 50.7223C396.557 50.7223 396.984 50.4293 396.984 46.4863C396.984 42.5973 396.558 42.2773 393.361 42.2773C392.135 42.2773 390.431 42.4903 389.338 42.9693V50.0303Z" fill="white"/>
<path d="M404.604 46.4333C404.604 40.8923 406.682 39.3203 412.303 39.3203C417.977 39.3203 420.029 40.8923 420.029 46.4333C420.029 52.0013 418.031 53.6523 412.303 53.6523C406.629 53.6523 404.604 52.0013 404.604 46.4333ZM408.414 46.4863C408.414 50.4563 408.84 50.8023 412.303 50.8023C415.793 50.8023 416.219 50.4573 416.219 46.4863C416.219 42.5973 415.793 42.1703 412.303 42.1703C408.84 42.1713 408.414 42.5973 408.414 46.4863Z" fill="white"/>
<path d="M435.02 39.7207C435.233 39.7207 435.367 39.8267 435.367 39.9877V42.3047C435.367 42.4647 435.233 42.5717 435.02 42.5717H427.774V53.0137C427.774 53.1737 427.614 53.2807 427.428 53.2807H424.631C424.418 53.2807 424.285 53.1747 424.285 53.0137V39.9877C424.285 39.8277 424.418 39.7207 424.631 39.7207H435.02Z" fill="white"/>
<path d="M438.308 39.9607C438.308 39.8267 438.414 39.7207 438.575 39.7207H441.452C441.612 39.7207 441.745 39.8267 441.745 39.9607V48.6717L447.952 39.9607C448.058 39.8547 448.219 39.7207 448.378 39.7207H451.735C451.895 39.7207 452.001 39.8267 452.001 39.9607V53.0407C452.001 53.1747 451.895 53.2807 451.735 53.2807H448.857C448.697 53.2807 448.564 53.1747 448.564 53.0407V43.9567L442.277 53.0677C442.197 53.1747 442.064 53.2807 441.904 53.2807H438.574C438.414 53.2807 438.307 53.1747 438.307 53.0407V39.9607H438.308Z" fill="white"/>
<path d="M110.997 17.759L84.357 53.278H62.158L88.797 17.759H110.997ZM128.713 44.398C125.002 44.398 122.97 40.197 125.159 37.289L139.856 17.759H117.657L107.634 31.068C105.228 34.263 105.237 36.735 107.634 39.944L114.25 48.766C117.62 53.259 120.947 53.278 126.536 53.278H142.075C155.391 53.277 164.274 44.394 164.274 31.079V22.199C164.274 8.885 155.393 0 142.075 0H122.096C121.171 0 119.876 5.96046e-07 118.766 1.11C117.656 2.22 117.656 3.515 117.656 4.44V8.88H142.075C144.85 8.88 146.515 10.545 146.515 13.32V39.959C146.515 42.734 144.85 44.399 142.075 44.399H128.713V44.398ZM44.442 26.638C48.153 26.638 50.184 30.839 47.996 33.747L33.299 53.277H55.498L65.521 39.969C67.927 36.774 67.918 34.302 65.521 31.093L58.905 22.271C55.535 17.778 52.208 17.758 46.619 17.758H4.44C3.515 17.758 2.22 17.758 1.11 18.868C5.96046e-07 19.978 0 21.273 0 22.198V26.638H8.88V71.036H26.64V26.638H44.442Z" fill="#E7001C"/>
</svg>
