<svg width="50" height="51" viewBox="0 0 50 51" fill="none" xmlns="http://www.w3.org/2000/svg">
<path fill-rule="evenodd" clip-rule="evenodd" d="M22.5797 0.887229C17.6844 1.40385 13.0793 3.29254 9.23523 6.36014C8.171 7.20942 6.33602 9.04385 5.48315 10.1111C3.27306 12.8768 1.52489 16.3626 0.683458 19.6816C0.122699 21.8936 0.00372333 22.9594 0.000106162 25.8005C-0.00341325 28.6076 0.0783153 29.4151 0.584133 31.5679C1.78366 36.6739 4.64719 41.4084 8.56342 44.7608C12.5691 48.1899 17.3454 50.2522 22.5157 50.7852C24.105 50.9492 27.4375 50.8494 28.9395 50.5931C33.3141 49.8463 37.2989 48.0684 40.7144 45.3394C41.7818 44.4866 43.6163 42.6518 44.4657 41.5877C46.956 38.4676 48.7243 34.7355 49.5049 30.9526C50.2234 27.4706 50.1566 23.3611 49.3257 19.9337C47.8041 13.6572 43.7658 8.07551 38.2215 4.58523C36.2168 3.32334 33.3634 2.10963 31.0849 1.5497C28.9568 1.02672 27.9084 0.902772 25.3659 0.873543C24.0485 0.858392 22.7947 0.86455 22.5797 0.887229ZM15.7364 10.94C16.2241 11.2296 21.0871 16.1139 21.2861 16.514C21.5323 17.0093 21.5811 17.4336 21.4468 17.9131C21.3447 18.2778 21.1123 18.5808 20.2299 19.499C19.0014 20.7777 18.8158 21.1355 18.8159 22.2255C18.816 22.9957 19.061 23.571 20.0105 25.0298C21.6223 27.5064 23.8014 29.6222 26.2859 31.1228C27.6238 31.9308 27.9155 32.0328 28.7749 31.9926C29.778 31.9458 30.1645 31.7285 31.4271 30.5013C32.2574 29.6943 32.5405 29.4795 32.9081 29.3772C33.3913 29.2429 33.8153 29.2914 34.311 29.5378C34.7164 29.7394 39.6003 34.605 39.881 35.0871C40.1951 35.6265 40.2554 36.005 40.1165 36.5643C40.0112 36.9884 39.841 37.2016 38.6028 38.4595C37.8061 39.2691 36.9708 40.0206 36.655 40.2119C34.8864 41.2832 32.1873 41.315 29.2819 40.2987C22.0358 37.7637 13.3959 29.2254 10.6543 21.8904C9.82962 19.6838 9.55403 17.2832 9.953 15.7808C10.318 14.4061 10.5911 13.9975 12.2477 12.3475C13.4798 11.1201 13.858 10.7996 14.1722 10.7158C14.6951 10.5765 15.2608 10.6576 15.7364 10.94Z" fill="white"/>
</svg>
