<svg width="50" height="51" viewBox="0 0 50 51" fill="none" xmlns="http://www.w3.org/2000/svg">
<path fill-rule="evenodd" clip-rule="evenodd" d="M22.5869 0.887229C17.69 1.40385 13.0835 3.29254 9.2382 6.36014C8.17363 7.20942 6.33806 9.04385 5.48491 10.1111C3.27411 12.8768 1.52538 16.3626 0.683678 19.6816C0.122738 21.8936 0.00372453 22.9594 0.000106196 25.8005C-0.00341434 28.6076 0.0783404 29.4151 0.58432 31.5679C1.78424 36.6739 4.64869 41.4084 8.56617 44.7608C12.5731 48.1899 17.351 50.2522 22.523 50.7852C24.1128 50.9492 27.4463 50.8494 28.9488 50.5931C33.3247 49.8463 37.3109 48.0684 40.7275 45.3394C41.7952 44.4866 43.6303 42.6518 44.48 41.5877C47.5133 37.7884 49.3218 33.4444 49.8843 28.6065C50.076 26.9583 50.0214 23.5594 49.7804 22.1348C48.8351 16.5451 46.5196 11.9818 42.6866 8.1541C38.9013 4.37409 34.3684 2.04912 28.9434 1.10522C28.0151 0.94373 27.2694 0.895342 25.374 0.873543C24.0562 0.858392 22.8021 0.86455 22.5869 0.887229ZM37.2568 15.3351C37.616 15.4851 37.9883 15.9898 37.9889 16.3277C37.9894 16.5959 33.5344 37.845 33.4086 38.175C33.2912 38.4826 32.782 38.9261 32.4506 39.0093C32.3171 39.0427 32.0161 39.0486 31.7818 39.0222C31.4094 38.9802 30.9364 38.6642 28.0319 36.5174C26.2038 35.1662 24.678 34.0607 24.6413 34.0607C24.5739 34.0607 24.0969 34.4951 21.7706 36.6756C21.068 37.3342 20.4335 37.873 20.3608 37.873C20.2879 37.873 20.1514 37.8167 20.0572 37.7479C19.8952 37.6294 19.9043 37.4487 20.2311 34.3133C20.4208 32.4931 20.5884 30.9958 20.6036 30.9861C20.6393 30.9632 30.5923 21.8891 31.9017 20.6858C32.9357 19.7354 33.1338 19.3859 32.7135 19.2527C32.5727 19.208 30.4639 20.495 24.6251 24.1889L16.7272 29.1855L13.3005 28.0409C11.4158 27.4114 9.7918 26.8257 9.69147 26.7394C9.40484 26.4928 9.31594 26.1574 9.43867 25.7857C9.49842 25.6048 9.62125 25.4173 9.71161 25.3689C9.80207 25.3205 14.6282 23.4911 20.4365 21.3035C26.2448 19.1159 32.1633 16.8853 33.5886 16.3468C37.0578 15.0359 36.7463 15.1219 37.2568 15.3351Z" fill="white"/>
</svg>
