<svg width="200" height="200" viewBox="0 0 200 200" fill="none" xmlns="http://www.w3.org/2000/svg">
<path d="M400 -5.46875H117.188V17.9688H35.3531L0 97.5133V182.031H48.8906C53.7281 195.67 66.7539 205.469 82.0312 205.469C97.3086 205.469 110.334 195.67 115.172 182.031H261.391C266.228 195.67 279.254 205.469 294.531 205.469C303.529 205.469 311.744 202.067 317.969 196.488C324.194 202.068 332.409 205.469 341.406 205.469C360.791 205.469 376.562 189.698 376.562 170.312C376.562 158.505 370.705 148.045 361.749 141.666H400V-5.46875ZM50.5844 41.4062H70.3125V88.2812H29.7508L50.5844 41.4062ZM82.0312 182.031C75.5695 182.031 70.3125 176.774 70.3125 170.312C70.3125 163.851 75.5695 158.594 82.0312 158.594C88.493 158.594 93.75 163.851 93.75 170.312C93.75 176.774 88.493 182.031 82.0312 182.031ZM117.188 158.594H115.172C110.334 144.955 97.3086 135.156 82.0312 135.156C66.7539 135.156 53.7281 144.955 48.8906 158.594H23.4375V111.719H93.75V41.4062H117.188V158.594ZM259.375 158.594H140.625V141.666H259.375V158.594ZM294.531 182.031C288.07 182.031 282.812 176.774 282.812 170.312C282.812 163.851 288.07 158.594 294.531 158.594C300.993 158.594 306.25 163.851 306.25 170.312C306.25 176.774 300.993 182.031 294.531 182.031ZM341.406 182.031C334.945 182.031 329.688 176.774 329.688 170.312C329.688 163.851 334.945 158.594 341.406 158.594C347.868 158.594 353.125 163.851 353.125 170.312C353.125 176.774 347.868 182.031 341.406 182.031ZM376.562 118.229H140.625V17.9688H376.562V118.229Z" fill="#DCDCDC"/>
</svg>
